<svg xmlns="http://www.w3.org/2000/svg" data-name="Your Icon" viewBox="0 0 100 100" x="0px" y="0px">
        <defs>
          <linearGradient id="aiGrad" x1="0%" y1="100%" x2="100%" y2="0%">
            <stop offset="0%" stop-color="#B324D7" />
            <stop offset="100%" stop-color="#FE577F" />
          </linearGradient>
        </defs>
        <path
          d="m90.64,59.09l-16.25-7.09c-3.93-1.71-7.06-4.85-8.77-8.77l-7.09-16.25c-.55-1.26-2.34-1.26-2.89,0l-7.09,16.25c-1.71,3.93-4.85,7.06-8.77,8.77l-16.27,7.1c-1.26.55-1.26,2.33,0,2.88l16.55,7.32c3.92,1.73,7.04,4.88,8.73,8.82l6.86,15.94c.54,1.27,2.34,1.27,2.89,0l7.08-16.22c1.71-3.93,4.85-7.06,8.77-8.77l16.25-7.09c1.26-.55,1.26-2.34,0-2.89Z" fill="url(#aiGrad)" />
        <path
          d="m25.28,48.51l3.32-7.61c.8-1.84,2.27-3.31,4.11-4.11l7.62-3.32c.59-.26.59-1.1,0-1.35l-7.62-3.32c-1.84-.8-3.31-2.27-4.11-4.11l-3.32-7.62c-.26-.59-1.1-.59-1.35,0l-3.32,7.62c-.8,1.84-2.27,3.31-4.11,4.11l-7.63,3.33c-.59.26-.59,1.09,0,1.35l7.76,3.43c1.84.81,3.3,2.29,4.09,4.13l3.22,7.47c.26.59,1.1.6,1.35,0Z" fill="url(#aiGrad)"/>
        <path
          d="m39.89,13.95l4.12,1.82c.98.43,1.75,1.22,2.17,2.19l1.71,3.97c.14.32.58.32.72,0l1.76-4.04c.43-.98,1.21-1.76,2.18-2.18l4.04-1.76c.31-.14.31-.58,0-.72l-4.04-1.76c-.98-.43-1.76-1.21-2.18-2.18l-1.76-4.04c-.14-.31-.58-.31-.72,0l-1.76,4.04c-.43.98-1.21,1.76-2.18,2.18l-4.05,1.77c-.31.14-.31.58,0,.72Z" fill="url(#aiGrad)"/>
      </svg>