<?xml version="1.0" encoding="UTF-8"?>
<svg version="1.1" xmlns="http://www.w3.org/2000/svg" width="4229" height="682">
<path d="M0 0 C0.79413053 -0.00380567 1.58826105 -0.00761134 2.40645614 -0.01153234 C5.0778961 -0.02187085 7.74912447 -0.0179378 10.42057896 -0.01409245 C12.35102676 -0.0185436 14.28147274 -0.02385724 16.21191603 -0.02996117 C21.52498617 -0.04416588 26.83799789 -0.04580399 32.1510843 -0.04536426 C37.87783007 -0.04701025 43.60455161 -0.06007252 49.33128452 -0.07155704 C61.85578492 -0.09442121 74.38026839 -0.10232887 86.90478683 -0.10738349 C94.72136898 -0.11063823 102.5379462 -0.11715927 110.35452557 -0.12438488 C131.98676399 -0.14395103 153.61899606 -0.16043699 175.25124359 -0.16326141 C176.28908941 -0.16340251 176.28908941 -0.16340251 177.34790181 -0.16354645 C180.15189569 -0.16392493 182.95588957 -0.16428893 185.75988345 -0.16464943 C187.87037916 -0.16492115 189.98087487 -0.16519783 192.09137058 -0.16547489 C193.13745167 -0.16560693 193.13745167 -0.16560693 194.20466572 -0.16574163 C216.12429708 -0.16864803 238.04384032 -0.19075317 259.9634409 -0.22699833 C284.58363349 -0.26770791 309.2037601 -0.29140025 333.82398897 -0.29172093 C346.86248863 -0.29230636 359.90087483 -0.30085391 372.93934536 -0.32971859 C384.03847908 -0.35417668 395.13745795 -0.36155296 406.2366113 -0.34647106 C411.90217317 -0.33927988 417.56742893 -0.3402547 423.23295689 -0.36288166 C428.41628908 -0.3833851 433.59907814 -0.38095232 438.78240389 -0.36000682 C440.66054928 -0.35649538 442.53873319 -0.36149135 444.41682803 -0.37571125 C446.96499668 -0.39376585 449.51123274 -0.38116041 452.05934143 -0.36076355 C453.15980495 -0.37960861 453.15980495 -0.37960861 454.28250006 -0.39883438 C460.00076422 -0.30047524 462.19728065 1.37892807 466.09259129 5.26006222 C467.2791295 6.52026749 468.43468884 7.81106078 469.54330063 9.14033508 C472.83355568 12.99176246 476.29385421 16.60189243 479.8812418 20.17569637 C480.52692936 20.82294393 481.17261692 21.47019148 481.83787078 22.1370526 C483.97876994 24.28190617 486.12318438 26.42320838 488.26764011 28.56450558 C489.81241285 30.11063474 491.35697307 31.65697626 492.90133762 33.20351315 C497.07834337 37.38506217 501.25848711 41.56346081 505.43935323 45.74114966 C509.81612556 50.11538506 514.19045174 54.49206557 518.56517124 58.86835384 C525.90446368 66.20946292 533.24585652 73.54846655 540.5884409 80.88628292 C548.14425313 88.43724545 555.69766337 95.99059846 563.24859715 103.54643917 C571.48077683 111.78394722 579.71460903 120.01979763 587.95093268 128.25316244 C592.30810221 132.6087707 596.66458784 136.96505722 601.01932812 141.32309437 C605.10710075 145.41374596 609.19729328 149.5019621 613.28940296 153.58827496 C614.79395856 155.09150362 616.29765517 156.59559257 617.80044842 158.10058308 C619.84429068 160.14713909 621.89115759 162.19061994 623.93885899 164.23331356 C624.53913735 164.83582264 625.13941571 165.43833173 625.75788432 166.05909866 C628.64994306 169.02271937 628.64994306 169.02271937 632.09259129 171.26006222 C631.76259129 326.03006222 631.43259129 480.80006222 631.09259129 640.26006222 C630.43259129 640.26006222 629.77259129 640.26006222 629.09259129 640.26006222 C628.76259129 642.90006222 628.43259129 645.54006222 628.09259129 648.26006222 C627.43259129 648.26006222 626.77259129 648.26006222 626.09259129 648.26006222 C626.03071629 649.25006222 626.03071629 649.25006222 625.96759129 650.26006222 C624.68148716 654.66956207 621.95047715 657.7261893 619.09259129 661.26006222 C618.47126316 662.07474972 617.84993504 662.88943722 617.20977879 663.72881222 C610.6572438 671.56283928 602.5175723 676.60457893 593.09259129 680.26006222 C592.41813994 680.60487469 591.7436886 680.94968717 591.04879934 681.30494851 C586.78452764 682.68268116 582.74028193 682.53557177 578.28544998 682.51453781 C576.7861806 682.51934753 576.7861806 682.51934753 575.25662294 682.52425441 C571.88651444 682.53259687 568.51658169 682.52661524 565.14647007 682.52075863 C562.71422292 682.52377738 560.28197673 682.52766546 557.84973222 682.5323512 C552.55071679 682.54051656 547.25175343 682.5424218 541.95273685 682.53884792 C534.07285607 682.53354739 526.19301279 682.53962969 518.31313609 682.54793086 C503.4215329 682.56318681 488.5299467 682.56487426 473.63833734 682.56240783 C462.13966587 682.56057642 450.64099998 682.56233158 439.14232922 682.56663227 C437.49134346 682.56723467 435.8403577 682.56783587 434.18937195 682.56843587 C431.70159851 682.56934311 429.21382507 682.57025178 426.72605164 682.57116823 C403.58973052 682.5796003 380.45341151 682.58393172 357.31708908 682.57976151 C356.44453336 682.57960513 355.57197763 682.57944875 354.67298082 682.57928764 C350.25035457 682.57848184 345.82772833 682.57763606 341.4051021 682.57677434 C340.52672897 682.57660325 339.64835585 682.57643216 338.74336535 682.57625589 C336.96708036 682.57590923 335.19079536 682.5755607 333.41451036 682.5752103 C305.77520896 682.56985303 278.13593947 682.57778264 250.49664402 682.59624386 C219.4548889 682.61695333 188.41315354 682.62768854 157.37139112 682.62366837 C154.06236096 682.62327302 150.75333081 682.62291147 147.44430065 682.62257099 C146.22212031 682.62243489 146.22212031 682.62243489 144.97524945 682.62229605 C132.66722463 682.62112935 120.35921975 682.62778392 108.05119991 682.63838291 C94.055072 682.6504232 80.05898805 682.65200745 66.0628595 682.63959274 C58.22824267 682.63295464 50.39373088 682.63461703 42.55912242 682.64818126 C36.713001 682.65737589 30.86696551 682.65093143 25.02084807 682.63833346 C22.65276866 682.63567062 20.28467706 682.63810245 17.91660955 682.64606933 C14.70329914 682.65613171 11.49054387 682.64779026 8.27725601 682.63479233 C7.35313755 682.64210167 6.42901908 682.64941102 5.47689703 682.65694186 C-7.5887598 682.54703796 -19.22732838 675.47409044 -28.59490871 666.76006222 C-30.6246837 664.56571088 -31.60217275 662.87053414 -32.90740871 660.26006222 C-33.89740871 659.93006222 -34.88740871 659.60006222 -35.90740871 659.26006222 C-41.95124093 653.115078 -45.7586525 646.20517963 -48.90740871 638.26006222 C-49.42554224 637.24695188 -49.42554224 637.24695188 -49.95414311 636.21337467 C-51.32892477 631.95416319 -51.18576952 627.91339965 -51.16747093 623.46409416 C-51.1712766 622.46577962 -51.17508227 621.46746509 -51.17900327 620.43889859 C-51.18936069 617.07283299 -51.18540519 613.70693473 -51.18156338 610.34085751 C-51.18601354 607.91146064 -51.19132684 605.48206523 -51.1974321 603.05267197 C-51.20867616 597.75978133 -51.21364459 592.4669394 -51.21311092 587.17404079 C-51.2123182 579.30304389 -51.22286233 571.43209057 -51.23552649 563.5611053 C-51.260278 547.86539725 -51.26905064 532.16969975 -51.27406298 516.47397487 C-51.27432416 515.66089841 -51.27458533 514.84782195 -51.27485442 514.0101068 C-51.2751147 513.19540631 -51.27537497 512.38070581 -51.27564313 511.54131742 C-51.27872451 502.51606137 -51.28522899 493.49080826 -51.29185581 484.46555424 C-51.31150575 457.20764051 -51.32790866 429.94972996 -51.33073235 402.6918087 C-51.33082641 401.81975385 -51.33092047 400.947699 -51.33101738 400.04921824 C-51.33139586 396.51511623 -51.33175986 392.98101421 -51.33212036 389.4469122 C-51.33239208 386.78689124 -51.33266876 384.12687028 -51.33294582 381.46684933 C-51.33303385 380.58787568 -51.33312187 379.70890203 -51.33321256 378.80329282 C-51.33611744 351.19078797 -51.35820718 323.57835315 -51.39446926 295.96587276 C-51.43520107 264.94898068 -51.45889096 233.93213632 -51.45919186 202.91521603 C-51.45928868 199.60723753 -51.4594554 196.29925905 -51.45967197 192.99128056 C-51.45971609 192.17676335 -51.4597602 191.36224614 -51.45980565 190.5230466 C-51.4609253 177.41780275 -51.4783313 164.31262907 -51.50149129 151.20740782 C-51.52434138 138.03302313 -51.52855422 124.85873317 -51.513942 111.68433594 C-51.50579438 103.85937354 -51.5114676 96.03470968 -51.53712284 88.20978352 C-51.55474178 82.36375241 -51.54616578 76.51794877 -51.52747775 70.67191458 C-51.52397781 68.30914425 -51.528914 65.94634305 -51.54318219 63.58361321 C-51.67177573 40.82043759 -51.67177573 40.82043759 -45.90740871 31.26006222 C-45.38975632 30.40129921 -44.87210392 29.5425362 -44.33876508 28.65775007 C-42.94727987 26.44836908 -41.46686723 24.35335155 -39.90740871 22.26006222 C-39.18553371 21.27006222 -38.46365871 20.28006222 -37.71990871 19.26006222 C-30.84411019 11.37376296 -22.58589012 6.01386575 -12.90740871 2.26006222 C-12.19377539 1.91536497 -11.48014206 1.57066771 -10.74488348 1.21552509 C-7.13539389 0.00010167 -3.76294808 -0.01955545 0 0 Z " fill="#E3DEFC" transform="translate(1277.9074087142944,-0.26006221771240234)"/>
<path d="M0 0 C42.219375 -0.04125 84.43875 -0.0825 127.9375 -0.125 C141.252146 -0.14320801 154.56679199 -0.16141602 168.28491211 -0.18017578 C184.58508301 -0.18920898 184.58508301 -0.18920898 192.22389221 -0.19088745 C197.5414968 -0.19274538 202.85906026 -0.20005129 208.176651 -0.21115112 C214.97423619 -0.22531907 221.77176276 -0.22896938 228.56936181 -0.22614455 C231.05490701 -0.22673465 233.54045438 -0.23065887 236.02598751 -0.23843026 C285.85962953 -0.38691697 336.43785795 12.35321172 373 48 C397.20942406 72.86152976 406.59758001 104.47523722 406.44604492 138.46484375 C406.43752847 141.36530555 406.46643698 144.263793 406.49804688 147.1640625 C406.60157088 174.62340553 399.17984374 200.90839484 381 222 C380.48566406 222.63550781 379.97132813 223.27101563 379.44140625 223.92578125 C375.71485255 228.48045799 371.54767198 232.27645309 367 236 C365.59427734 237.16208984 365.59427734 237.16208984 364.16015625 238.34765625 C353.5198429 246.94828219 335.27813837 261 321 261 C321 264.96 321 268.92 321 273 C322.60875 273.12375 324.2175 273.2475 325.875 273.375 C341.80848035 274.89537026 355.65928374 279.5900087 368 290 C368.71671875 290.58136719 369.4334375 291.16273438 370.171875 291.76171875 C379.9604368 300.50692609 384.53292199 312.41063807 386.52734375 325.05078125 C386.83634769 327.92272831 386.83634769 327.92272831 388 330 C388.09530088 332.36782704 388.13018549 334.70603921 388.12025452 337.07400513 C388.12153615 338.17912754 388.12153615 338.17912754 388.12284368 339.30657566 C388.1244975 341.7879042 388.11897871 344.26916591 388.11352539 346.75048828 C388.11324347 348.52415973 388.11340134 350.2978313 388.1139679 352.07150269 C388.11425569 356.89768677 388.1083619 361.72384618 388.10139394 366.55002451 C388.09515736 371.58957196 388.09455636 376.62911994 388.09336853 381.66867065 C388.09025612 391.21675431 388.08204393 400.76482656 388.07201904 410.31290519 C388.05876907 423.21171162 388.05335727 436.11052115 388.04751682 449.00933266 C388.03810398 469.33956365 388.01818446 489.66977058 388 510 C359.29 510 330.58 510 301 510 C300.97421875 497.93953125 300.9484375 485.8790625 300.921875 473.453125 C300.89670434 465.80597341 300.87053216 458.1588469 300.83984375 450.51171875 C300.79133532 438.37776878 300.74687921 426.24390223 300.72900391 414.10986328 C300.71596509 405.27169735 300.6889436 396.43370149 300.64538693 387.59563136 C300.62282222 382.91932808 300.60708632 378.24323419 300.60811615 373.56687164 C300.60886572 369.1574326 300.59079651 364.74845554 300.55883217 360.33913612 C300.55037448 358.72841565 300.54855489 357.11764312 300.55419731 355.50691032 C300.59594026 341.74874002 298.73859442 330.38045632 289 320 C277.29845104 308.89853048 261.41151219 309.69983523 246.29785156 309.68115234 C244.514195 309.67172492 242.73054279 309.66144344 240.9468956 309.6503849 C236.20303961 309.62330065 231.45921427 309.60778907 226.71530151 309.59480286 C222.25140367 309.58079274 217.7875878 309.55617475 213.32373047 309.5324707 C200.29920054 309.46940956 187.27459334 309.42321892 174.25 309.375 C130.56625 309.189375 130.56625 309.189375 86 309 C86 375.33 86 441.66 86 510 C57.62 510 29.24 510 0 510 C0 341.7 0 173.4 0 0 Z " fill="#DA41A9" transform="translate(1341,90)"/>
<path d="M0 0 C1.45014267 1.38269417 2.89002426 2.77635872 4.3125 4.1875 C5.158125 4.991875 6.00375 5.79625 6.875 6.625 C8.0815625 7.8934375 8.0815625 7.8934375 9.3125 9.1875 C9.98925781 9.88101563 10.66601562 10.57453125 11.36328125 11.2890625 C15.70302987 15.88409045 18.85104233 20.05287422 21.625 25.75 C23.99374555 30.16261678 23.99374555 30.16261678 28.4140625 32.16796875 C31.44336841 32.41272532 34.28703802 32.44583173 37.3125 32.1875 C37.55742187 31.49140625 37.80234375 30.7953125 38.0546875 30.078125 C44.05417867 16.29047449 55.64708309 5.18928664 67.3125 -3.8125 C68.17746094 -4.50472656 69.04242187 -5.19695312 69.93359375 -5.91015625 C98.39793259 -27.86110997 139.19744646 -29.73752863 173.58374023 -25.79492188 C198.61902981 -22.52422122 223.18331344 -13.62398649 242.3125 3.1875 C243.12976562 3.86167969 243.94703125 4.53585937 244.7890625 5.23046875 C261.54828334 19.47321216 272.22622896 39.39164868 278 60.375 C278.20262451 61.09196045 278.40524902 61.8089209 278.61401367 62.54760742 C282.86695522 78.86563139 282.59303436 95.61893017 282.53955078 112.34204102 C282.53898556 114.83712764 282.53930538 117.33221459 282.54043579 119.82730103 C282.5408884 125.16471948 282.53528697 130.50207693 282.52396011 135.83947945 C282.5075949 143.55612992 282.50248594 151.27275685 282.49998413 158.98942279 C282.49562416 171.51403951 282.48236153 184.03862994 282.46337891 196.56323242 C282.44497588 208.71817902 282.43084112 220.87311843 282.42236328 233.02807617 C282.42157511 234.15494154 282.42157511 234.15494154 282.42077102 235.30457187 C282.41816064 239.07394107 282.4156333 242.84331032 282.41314721 246.6126796 C282.39246767 277.80430971 282.35562678 308.99589084 282.3125 340.1875 C254.9225 340.1875 227.5325 340.1875 199.3125 340.1875 C199.29791748 332.80874512 199.28333496 325.42999023 199.26831055 317.82763672 C199.21948505 294.18024186 199.15605717 270.53290909 199.08351372 246.88557612 C199.07224644 243.20838572 199.06110785 239.53119494 199.05004883 235.85400391 C199.0467433 234.75597557 199.0467433 234.75597557 199.043371 233.63576485 C199.00806191 221.80502382 198.9831618 209.97428286 198.96215298 198.14350878 C198.94033989 185.99124586 198.90723753 173.83905093 198.86379844 161.6868459 C198.83737626 154.19683451 198.81961158 146.70690773 198.81315396 139.21685208 C198.80724378 133.45975373 198.78557675 127.70279508 198.75822449 121.94576263 C198.74947088 119.59409799 198.74571609 117.24240826 198.74749184 114.890728 C198.80465114 92.72302446 198.80465114 92.72302446 191.6875 71.9375 C191.33905029 71.26912109 190.99060059 70.60074219 190.6315918 69.91210938 C182.71317928 55.31303218 170.42499407 47.59113485 154.9921875 42.1953125 C130.26664735 35.42334927 101.89499704 37.07945241 79.37890625 49.8515625 C76.62280447 51.54935111 73.95674833 53.32097177 71.3125 55.1875 C70.35923828 55.86039063 70.35923828 55.86039063 69.38671875 56.546875 C54.31507024 68.32701406 46.73185448 87.94862695 43.74840164 106.26276398 C42.7756575 115.02107916 43.00194623 123.8612574 42.99365234 132.66308594 C42.98434265 134.93084059 42.97417245 137.19859184 42.96321106 139.46633911 C42.9360144 145.59352509 42.92079237 151.7206882 42.90778303 157.84791851 C42.89210713 164.26210323 42.86533119 170.67624158 42.8397522 177.09039307 C42.79834342 187.84670867 42.76372684 198.6030212 42.734375 209.359375 C42.70413874 220.43296131 42.66976535 231.50652218 42.62988281 242.58007812 C42.62742126 243.26393443 42.62495972 243.94779073 42.62242357 244.65236995 C42.61004799 248.08345897 42.59759165 251.51454769 42.58509517 254.94563627 C42.48171218 283.35955929 42.39406176 311.77350545 42.3125 340.1875 C14.9225 340.1875 -12.4675 340.1875 -40.6875 340.1875 C-40.70937378 329.21810181 -40.70937378 329.21810181 -40.73168945 318.02709961 C-40.78052502 294.58502676 -40.84395565 271.14301647 -40.91648628 247.70100599 C-40.92775343 244.05514691 -40.93889204 240.40928745 -40.94995117 236.76342773 C-40.9532567 235.67476471 -40.9532567 235.67476471 -40.956629 234.5641085 C-40.9919287 222.83750755 -41.01683409 211.11090665 -41.03784702 199.38427239 C-41.05966763 187.33709548 -41.09277701 175.28998706 -41.13620156 163.24286848 C-41.16025085 156.48232251 -41.17921587 149.72184437 -41.18511391 142.96125603 C-41.19118596 136.58943826 -41.21126253 130.21781356 -41.24177551 123.84606743 C-41.25052177 121.51578617 -41.25428545 119.18547964 -41.25250816 116.85518265 C-41.24089246 94.58466822 -42.96606886 74.48825299 -58.6875 57.1875 C-76.22260264 40.80966382 -98.87420689 38.35856494 -121.84765625 38.84765625 C-142.9731268 39.66386101 -163.08796784 47.83902921 -177.875 63.3125 C-196.95291451 86.14344687 -197.81246509 114.41222898 -197.89282227 142.7668457 C-197.90241738 144.92637309 -197.91242838 147.08589867 -197.92282104 149.24542236 C-197.94969937 155.07296739 -197.97080063 160.90052036 -197.99082303 166.72809243 C-198.01278873 172.8312906 -198.04012532 178.93446472 -198.06687927 185.03764343 C-198.11666376 196.57926104 -198.16165505 208.12089209 -198.20490164 219.66253585 C-198.25439624 232.80891509 -198.3092688 245.95527019 -198.36458123 259.10162604 C-198.47818244 286.13022922 -198.58435875 313.15885474 -198.6875 340.1875 C-225.7475 340.1875 -252.8075 340.1875 -280.6875 340.1875 C-280.6875 221.0575 -280.6875 101.9275 -280.6875 -20.8125 C-253.9575 -20.8125 -227.2275 -20.8125 -199.6875 -20.8125 C-199.6875 -6.9525 -199.6875 6.9075 -199.6875 21.1875 C-188.66938117 21.42958203 -188.66938117 21.42958203 -185.1171875 18.03515625 C-184.60414063 17.11605469 -184.09109375 16.19695312 -183.5625 15.25 C-170.02040478 -6.16861999 -145.74647106 -18.33468584 -121.6875 -23.8125 C-117.69784015 -24.65363796 -113.73397632 -25.31677783 -109.6875 -25.8125 C-108.84445313 -25.92335937 -108.00140625 -26.03421875 -107.1328125 -26.1484375 C-70.25549259 -30.10339645 -28.69927074 -25.51046288 0 0 Z " fill="#6A4DFF" transform="translate(3512.6875,260.8125)"/>
<path d="M0 0 C27.06 0 54.12 0 82 0 C82 66.66 82 133.32 82 202 C92.99393127 202.22832072 92.99393127 202.22832072 96.53515625 198.91796875 C97.03917969 198.01691406 97.54320312 197.11585938 98.0625 196.1875 C114.12775757 170.52308438 141.12630073 155.79794718 170 149 C176.62131924 147.65548822 183.28811587 146.7499145 190 146 C191.15113281 145.86851562 192.30226563 145.73703125 193.48828125 145.6015625 C238.86355241 141.50172115 285.90010272 149.59499392 321.67822266 179.39794922 C351.91929126 205.27505023 367.92984897 240.60979503 371 280 C371.12469731 283.33790058 371.13139123 286.67022278 371.12025452 290.01016235 C371.12153615 291.44405495 371.12153615 291.44405495 371.12284368 292.90691507 C371.12447929 296.08200595 371.11900878 299.25704296 371.11352539 302.43212891 C371.11324308 304.71928913 371.11340211 307.00644945 371.1139679 309.29360962 C371.11425415 315.48291069 371.10838518 321.67219227 371.10139394 327.86148882 C371.0951318 334.3370507 371.09455434 340.81261305 371.09336853 347.28817749 C371.09061614 358.15061794 371.08437499 369.01305122 371.07543945 379.87548828 C371.0662488 391.05973271 371.05917607 402.24397521 371.05493164 413.42822266 C371.05453756 414.46375626 371.05453756 414.46375626 371.05413551 415.52020974 C371.05283039 418.98380792 371.0515667 422.44740611 371.05032361 425.9110043 C371.03997087 454.60734197 371.02154329 483.30366839 371 512 C343.61 512 316.22 512 288 512 C287.9906543 505.22823242 287.98130859 498.45646484 287.97167969 491.47949219 C287.93888007 469.74158756 287.88653109 448.00376433 287.82207905 426.26593123 C287.81206318 422.88187776 287.80221878 419.49782381 287.79248047 416.11376953 C287.7905391 415.44014619 287.78859772 414.76652284 287.78659752 414.07248667 C287.75568831 403.20607207 287.73862798 392.33967852 287.72680578 381.47322831 C287.71433648 370.29951561 287.68641387 359.12589873 287.64538693 347.95225072 C287.62285835 341.68615521 287.60708414 335.42021522 287.60811615 329.15407562 C287.60886786 323.24100036 287.59071352 317.32826778 287.55883217 311.4152813 C287.55040115 309.25964614 287.54853623 307.10397223 287.55419731 304.94832802 C287.61230719 279.39202941 283.88767385 254.38863654 265.3984375 235.31640625 C245.78553484 216.72558443 217.71686938 210.18923953 191.19140625 210.81640625 C160.27542072 212.59492684 131.618377 221.32209393 109.7578125 244.36328125 C85.66396965 273.00401663 82.91565601 309.21696547 82.79467773 345.00415039 C82.7850692 346.83914902 82.77505754 348.67414558 82.76467896 350.50914001 C82.73794547 355.43358264 82.71676775 360.35803454 82.69667697 365.28250813 C82.67461968 370.45010973 82.64732877 375.61768379 82.62062073 380.78526306 C82.57095801 390.54532234 82.5259226 400.30539712 82.48259836 410.06548637 C82.42370249 423.27231218 82.35755973 436.47910164 82.29184818 449.68589497 C82.18868747 470.45723872 82.09512376 491.22861429 82 512 C54.94 512 27.88 512 0 512 C0 343.04 0 174.08 0 0 Z " fill="#6A4DFF" transform="translate(355,86)"/>
<path d="M0 0 C2.35698279 2.11524097 4.66129215 4.27630334 6.96484375 6.44921875 C8.18798806 7.47726028 9.41668658 8.49875145 10.65234375 9.51171875 C22.90915912 20.00127237 32.19716898 34.45535576 39.96484375 48.44921875 C40.31289062 49.07135254 40.6609375 49.69348633 41.01953125 50.33447266 C61.60585556 87.66653352 61.96484375 128.81814461 61.96484375 170.44921875 C-37.36515625 170.44921875 -136.69515625 170.44921875 -239.03515625 170.44921875 C-234.94322661 195.00079657 -230.86256609 215.96319324 -214.03515625 234.44921875 C-212.80152344 235.80466797 -212.80152344 235.80466797 -211.54296875 237.1875 C-190.47813126 259.25978624 -160.00701801 270.94057625 -129.734375 271.65234375 C-100.8916841 271.97459699 -72.6060286 269.22033511 -50.03515625 249.44921875 C-49.10058594 248.670625 -48.16601562 247.89203125 -47.203125 247.08984375 C-35.06976395 236.59440693 -25.53230154 223.59837659 -18.03515625 209.44921875 C-4.01653556 215.28841732 9.57574375 222.01726154 23.22335815 228.66165161 C29.26776246 231.60211419 35.33086931 234.50256858 41.40234375 237.38671875 C42.28365967 237.80542236 43.16497559 238.22412598 44.07299805 238.65551758 C46.03654216 239.5876038 48.00061966 240.51856631 49.96484375 241.44921875 C49.44387549 246.20080858 47.23723616 249.54001604 44.58984375 253.38671875 C44.14503662 254.0413208 43.70022949 254.69592285 43.24194336 255.37036133 C35.35159028 266.83734382 26.55541866 277.37705113 16.96484375 287.44921875 C16.13855469 288.3515625 15.31226562 289.25390625 14.4609375 290.18359375 C-18.7384137 325.25832815 -67.7669525 338.21623958 -114.57714844 339.52001953 C-152.54210639 340.33698698 -190.71851397 335.49312478 -225.03515625 318.44921875 C-226.11917725 317.91941406 -226.11917725 317.91941406 -227.22509766 317.37890625 C-268.03566606 297.27642472 -298.61765288 262.0014022 -313.78515625 219.13671875 C-315.69422959 213.01315133 -317.25230775 206.81672256 -318.72265625 200.57421875 C-318.92536133 199.72561279 -319.12806641 198.87700684 -319.33691406 198.00268555 C-322.73130518 182.86817792 -323.38455117 167.80635859 -323.35083008 152.34960938 C-323.34768181 149.34858399 -323.37119034 146.34856003 -323.39648438 143.34765625 C-323.56032707 93.39452071 -307.14246939 46.78589675 -271.97265625 10.88671875 C-263.71044666 2.66327288 -254.7818188 -4.18614549 -245.03515625 -10.55078125 C-244.35549805 -11.00001953 -243.67583984 -11.44925781 -242.97558594 -11.91210938 C-217.35407774 -28.61150908 -188.0434265 -36.46956789 -158.03515625 -40.55078125 C-157.29217285 -40.65535645 -156.54918945 -40.75993164 -155.78369141 -40.86767578 C-101.5093204 -47.43321861 -42.46164493 -35.68526917 0 0 Z M-208.03515625 52.44921875 C-208.834375 53.18011719 -209.63359375 53.91101563 -210.45703125 54.6640625 C-226.01737974 69.51949588 -235.38669118 90.26149818 -238.03515625 111.44921875 C-167.08515625 111.44921875 -96.13515625 111.44921875 -23.03515625 111.44921875 C-24.68468529 91.65487026 -29.8588985 74.58924569 -43.03515625 59.44921875 C-43.46828125 58.87429688 -43.90140625 58.299375 -44.34765625 57.70703125 C-58.9111244 38.89588489 -85.36024558 29.55345806 -108.03515625 26.44921875 C-143.05296792 22.15689928 -181.35146475 27.7022468 -208.03515625 52.44921875 Z " fill="#6A4DFF" transform="translate(2312.03515625,271.55078125)"/>
<path d="M0 0 C2.35698279 2.11524097 4.66129215 4.27630334 6.96484375 6.44921875 C8.18798806 7.47726028 9.41668658 8.49875145 10.65234375 9.51171875 C22.90915912 20.00127237 32.19716898 34.45535576 39.96484375 48.44921875 C40.31289062 49.07135254 40.6609375 49.69348633 41.01953125 50.33447266 C61.60585556 87.66653352 61.96484375 128.81814461 61.96484375 170.44921875 C-37.36515625 170.44921875 -136.69515625 170.44921875 -239.03515625 170.44921875 C-234.94322661 195.00079657 -230.86256609 215.96319324 -214.03515625 234.44921875 C-212.80152344 235.80466797 -212.80152344 235.80466797 -211.54296875 237.1875 C-190.47813126 259.25978624 -160.00701801 270.94057625 -129.734375 271.65234375 C-100.8916841 271.97459699 -72.6060286 269.22033511 -50.03515625 249.44921875 C-49.10058594 248.670625 -48.16601562 247.89203125 -47.203125 247.08984375 C-35.06976395 236.59440693 -25.53230154 223.59837659 -18.03515625 209.44921875 C-4.01653556 215.28841732 9.57574375 222.01726154 23.22335815 228.66165161 C29.26776246 231.60211419 35.33086931 234.50256858 41.40234375 237.38671875 C42.28365967 237.80542236 43.16497559 238.22412598 44.07299805 238.65551758 C46.03654216 239.5876038 48.00061966 240.51856631 49.96484375 241.44921875 C49.44387549 246.20080858 47.23723616 249.54001604 44.58984375 253.38671875 C44.14503662 254.0413208 43.70022949 254.69592285 43.24194336 255.37036133 C35.35159028 266.83734382 26.55541866 277.37705113 16.96484375 287.44921875 C16.13855469 288.3515625 15.31226563 289.25390625 14.4609375 290.18359375 C-18.7384137 325.25832815 -67.7669525 338.21623958 -114.57714844 339.52001953 C-152.54210639 340.33698698 -190.71851397 335.49312478 -225.03515625 318.44921875 C-226.11917725 317.91941406 -226.11917725 317.91941406 -227.22509766 317.37890625 C-268.03566606 297.27642472 -298.61765288 262.0014022 -313.78515625 219.13671875 C-315.69422959 213.01315133 -317.25230775 206.81672256 -318.72265625 200.57421875 C-318.92536133 199.72561279 -319.12806641 198.87700684 -319.33691406 198.00268555 C-322.73130518 182.86817792 -323.38455117 167.80635859 -323.35083008 152.34960938 C-323.34768181 149.34858399 -323.37119034 146.34856003 -323.39648438 143.34765625 C-323.56032707 93.39452071 -307.14246939 46.78589675 -271.97265625 10.88671875 C-263.71044666 2.66327288 -254.7818188 -4.18614549 -245.03515625 -10.55078125 C-244.35549805 -11.00001953 -243.67583984 -11.44925781 -242.97558594 -11.91210938 C-217.35407774 -28.61150908 -188.0434265 -36.46956789 -158.03515625 -40.55078125 C-157.29217285 -40.65535645 -156.54918945 -40.75993164 -155.78369141 -40.86767578 C-101.5093204 -47.43321861 -42.46164493 -35.68526917 0 0 Z M-208.03515625 52.44921875 C-208.834375 53.18011719 -209.63359375 53.91101563 -210.45703125 54.6640625 C-226.01737974 69.51949588 -235.38669118 90.26149818 -238.03515625 111.44921875 C-167.08515625 111.44921875 -96.13515625 111.44921875 -23.03515625 111.44921875 C-24.68468529 91.65487026 -29.8588985 74.58924569 -43.03515625 59.44921875 C-43.46828125 58.87429688 -43.90140625 58.299375 -44.34765625 57.70703125 C-58.9111244 38.89588489 -85.36024558 29.55345806 -108.03515625 26.44921875 C-143.05296792 22.15689928 -181.35146475 27.7022468 -208.03515625 52.44921875 Z " fill="#6A4DFF" transform="translate(1099.03515625,268.55078125)"/>
<path d="M0 0 C2.35698279 2.11524097 4.66129215 4.27630334 6.96484375 6.44921875 C8.18798806 7.47726028 9.41668658 8.49875145 10.65234375 9.51171875 C22.90915912 20.00127237 32.19716898 34.45535576 39.96484375 48.44921875 C40.31289063 49.07135254 40.6609375 49.69348633 41.01953125 50.33447266 C61.87308628 88.15114035 60.96484375 127.77563778 60.96484375 170.44921875 C-38.03515625 170.44921875 -137.03515625 170.44921875 -239.03515625 170.44921875 C-234.94322661 195.00079657 -230.86256609 215.96319324 -214.03515625 234.44921875 C-212.80152344 235.80466797 -212.80152344 235.80466797 -211.54296875 237.1875 C-190.47813126 259.25978624 -160.00701801 270.94057625 -129.734375 271.65234375 C-100.8916841 271.97459699 -72.6060286 269.22033511 -50.03515625 249.44921875 C-49.10058594 248.670625 -48.16601562 247.89203125 -47.203125 247.08984375 C-35.06976395 236.59440693 -25.53230154 223.59837659 -18.03515625 209.44921875 C-4.01653556 215.28841732 9.57574375 222.01726154 23.22335815 228.66165161 C29.26776246 231.60211419 35.33086931 234.50256858 41.40234375 237.38671875 C42.28365967 237.80542236 43.16497559 238.22412598 44.07299805 238.65551758 C46.03654216 239.5876038 48.00061966 240.51856631 49.96484375 241.44921875 C49.44387549 246.20080858 47.23723616 249.54001604 44.58984375 253.38671875 C44.14503662 254.0413208 43.70022949 254.69592285 43.24194336 255.37036133 C35.35159028 266.83734382 26.55541866 277.37705113 16.96484375 287.44921875 C16.13855469 288.3515625 15.31226562 289.25390625 14.4609375 290.18359375 C-18.7384137 325.25832815 -67.7669525 338.21623958 -114.57714844 339.52001953 C-152.54210639 340.33698698 -190.71851397 335.49312478 -225.03515625 318.44921875 C-226.11917725 317.91941406 -226.11917725 317.91941406 -227.22509766 317.37890625 C-268.03566606 297.27642472 -298.61765288 262.0014022 -313.78515625 219.13671875 C-315.69422959 213.01315133 -317.25230775 206.81672256 -318.72265625 200.57421875 C-318.92536133 199.72561279 -319.12806641 198.87700684 -319.33691406 198.00268555 C-322.73130518 182.86817792 -323.38455117 167.80635859 -323.35083008 152.34960938 C-323.34768181 149.34858399 -323.37119034 146.34856003 -323.39648438 143.34765625 C-323.56032707 93.39452071 -307.14246939 46.78589675 -271.97265625 10.88671875 C-263.71044666 2.66327288 -254.7818188 -4.18614549 -245.03515625 -10.55078125 C-244.35549805 -11.00001953 -243.67583984 -11.44925781 -242.97558594 -11.91210938 C-217.35407774 -28.61150908 -188.0434265 -36.46956789 -158.03515625 -40.55078125 C-157.29217285 -40.65535645 -156.54918945 -40.75993164 -155.78369141 -40.86767578 C-101.5093204 -47.43321861 -42.46164493 -35.68526917 0 0 Z M-208.03515625 52.44921875 C-208.834375 53.18011719 -209.63359375 53.91101563 -210.45703125 54.6640625 C-226.01737974 69.51949588 -235.38669118 90.26149818 -238.03515625 111.44921875 C-167.08515625 111.44921875 -96.13515625 111.44921875 -23.03515625 111.44921875 C-24.68468529 91.65487026 -29.8588985 74.58924569 -43.03515625 59.44921875 C-43.46828125 58.87429688 -43.90140625 58.299375 -44.34765625 57.70703125 C-58.9111244 38.89588489 -85.36024558 29.55345806 -108.03515625 26.44921875 C-143.05296792 22.15689928 -181.35146475 27.7022468 -208.03515625 52.44921875 Z " fill="#6A4DFF" transform="translate(4168.03515625,271.55078125)"/>
<path d="M0 0 C2.66341547 -0.00217008 5.3264044 -0.02033557 7.98974609 -0.03930664 C19.67915196 -0.07791522 31.10779739 0.66183897 42.69677734 2.18530273 C43.69322266 2.31541748 44.68966797 2.44553223 45.71630859 2.57958984 C78.80339146 7.37656554 109.52243384 21.02308955 133.69677734 44.18530273 C134.59009766 45.00385742 135.48341797 45.82241211 136.40380859 46.66577148 C152.03747677 61.46855939 161.59210764 80.75813872 167.69677734 101.18530273 C165.07497255 103.80710753 162.30569897 104.26955021 158.81616211 105.15649414 C157.75493637 105.43490898 157.75493637 105.43490898 156.67227173 105.71894836 C154.32928826 106.33171988 151.98385036 106.93445409 149.63818359 107.53686523 C148.01142102 107.95949185 146.38478993 108.38262482 144.75828552 108.8062439 C141.34719857 109.6930888 137.93494376 110.57524008 134.52172852 111.45385742 C130.1437793 112.58099018 125.76830804 113.7174045 121.39360142 114.85704994 C118.03409981 115.73154772 114.67362833 116.60226628 111.31281853 117.47172165 C109.69902195 117.88947075 108.08546093 118.30813093 106.47213936 118.72771072 C104.21795024 119.31311303 101.96257613 119.89369833 99.70678711 120.47290039 C99.03811111 120.64742233 98.36943512 120.82194427 97.68049622 121.00175476 C94.92301695 121.70506674 92.5579614 122.18530273 89.69677734 122.18530273 C89.40544922 121.16952148 89.11412109 120.15374023 88.81396484 119.10717773 C83.054366 99.53934048 74.8841485 84.98013429 56.78271484 74.49780273 C29.48731032 60.09389533 -5.51436291 59.675338 -34.73291016 68.00170898 C-46.52890586 71.91219771 -57.49959793 78.11752077 -63.36572266 89.49780273 C-67.56084902 98.7688827 -67.67684126 109.29384161 -64.34228516 118.90795898 C-62.54866115 122.83909732 -60.19578368 125.9951816 -57.30322266 129.18530273 C-56.61873047 129.9684082 -56.61873047 129.9684082 -55.92041016 130.76733398 C-50.06782038 136.57396101 -41.87253136 139.3144148 -34.30322266 142.18530273 C-33.63355469 142.44311523 -32.96388672 142.70092773 -32.27392578 142.96655273 C-14.99712104 149.38890803 3.69558401 151.45208399 21.80078125 154.38891602 C119.12933274 170.18485739 119.12933274 170.18485739 152.69677734 199.18530273 C153.45474609 199.79889648 154.21271484 200.41249023 154.99365234 201.04467773 C171.75037449 215.02787346 179.72947602 234.7891058 181.69677734 256.18530273 C183.14307115 282.6653229 178.66643657 310.73094164 160.49682617 331.21435547 C158.28444543 333.59502421 155.9984534 335.89069788 153.69677734 338.18530273 C153.11541016 338.8259668 152.53404297 339.46663086 151.93505859 340.12670898 C124.4845149 369.92818085 76.60817392 379.00891726 38.16503906 380.97680664 C36.00909382 381.06377683 33.85375739 381.12959081 31.69677734 381.18530273 C30.86307617 381.2072168 30.029375 381.22913086 29.17041016 381.25170898 C-26.78946217 382.47309579 -85.90445545 371.69972782 -127.83056641 331.99291992 C-147.35499685 312.97771445 -159.7243983 286.9352766 -164.30322266 260.18530273 C-164.30322266 258.86530273 -164.30322266 257.54530273 -164.30322266 256.18530273 C-155.00333712 254.09290602 -145.70218841 252.00624631 -136.39938068 249.92687988 C-132.07966265 248.96114649 -127.76040414 247.99344994 -123.44213867 247.02124023 C-119.27402847 246.08291259 -115.10478688 245.14977681 -110.93471336 244.22021484 C-109.34471519 243.86483046 -107.75513206 243.50758379 -106.16597939 243.1484375 C-103.93846781 242.64535851 -101.70956661 242.14894753 -99.48022461 241.65405273 C-97.5782708 241.22769531 -97.5782708 241.22769531 -95.63789368 240.79272461 C-92.75400752 240.26741476 -90.22058473 240.05475782 -87.30322266 240.18530273 C-86.91134766 241.36092773 -86.51947266 242.53655273 -86.11572266 243.74780273 C-85.83599609 244.5740918 -85.55626953 245.40038086 -85.26806641 246.25170898 C-84.58355515 248.33295575 -83.93330593 250.42561175 -83.30712891 252.52514648 C-78.41307617 268.3927154 -71.31989087 281.63634915 -59.30322266 293.18530273 C-58.64837891 293.84788086 -57.99353516 294.51045898 -57.31884766 295.19311523 C-42.89341126 308.94043283 -22.5030891 314.40242324 -3.30322266 317.18530273 C-2.65675781 317.27956543 -2.01029297 317.37382813 -1.34423828 317.47094727 C26.21248689 321.04004119 60.47467946 319.73397974 83.38427734 302.11889648 C92.9811595 293.90727857 98.58754493 285.32245456 99.97802734 272.61499023 C100.35147359 262.68754421 97.22787194 253.6855275 90.69677734 246.18530273 C80.15746928 236.05549744 63.62287426 231.67626861 49.79052734 228.25170898 C48.25179459 227.86952209 48.25179459 227.86952209 46.68197632 227.47961426 C34.01027553 224.42286781 21.17433821 222.31992446 8.32177734 220.18530273 C-16.32179 216.08025209 -40.78380321 211.60341578 -64.49072266 203.56030273 C-65.24539825 203.30718323 -66.00007385 203.05406372 -66.77761841 202.79327393 C-85.46549842 196.48118654 -103.48424566 188.47675466 -118.30322266 175.18530273 C-118.85155762 174.69449219 -119.39989258 174.20368164 -119.96484375 173.69799805 C-135.84163904 159.27271843 -146.19447892 140.49290069 -147.50634766 118.83129883 C-147.60671439 115.19651741 -147.63213367 111.5714135 -147.61572266 107.93530273 C-147.61080811 106.65204102 -147.60589355 105.3687793 -147.60083008 104.04663086 C-147.27582431 77.79283191 -137.47853912 55.89602081 -118.90917969 37.49291992 C-114.38394373 33.12864967 -109.68075219 29.46282073 -104.30322266 26.18530273 C-103.4531665 25.66589111 -103.4531665 25.66589111 -102.5859375 25.13598633 C-79.65628105 11.2845285 -54.85023306 4.21488311 -28.30322266 1.18530273 C-27.15563477 1.04282104 -27.15563477 1.04282104 -25.98486328 0.89746094 C-17.34376504 -0.04818454 -8.68190679 -0.00078797 0 0 Z " fill="#6A4DFF" transform="translate(2564.30322265625,229.814697265625)"/>
<path d="M0 0 C27.06 0 54.12 0 82 0 C82.029729 9.50578857 82.029729 9.50578857 82.06005859 19.20361328 C82.12711001 40.19423936 82.20465044 61.18481715 82.28752708 82.17538643 C82.33749731 94.8958836 82.38394108 107.61637483 82.421875 120.33691406 C82.45497477 131.43332126 82.49490311 142.52968008 82.54279006 153.62603366 C82.5678776 159.49308904 82.58970967 165.36011308 82.60334396 171.22720718 C82.6163274 176.76756899 82.63855077 182.30782229 82.66738319 187.84812355 C82.67633354 189.86424257 82.68211917 191.880379 82.68421364 193.8965168 C82.69689587 204.26503472 82.99095901 214.53835092 83.90664673 224.87033081 C83.98546408 225.76665446 84.06428143 226.66297812 84.14548719 227.58646309 C85.67692457 243.33110446 90.46486518 258.07722639 100.23046875 270.625 C102 273 102 273 102.98828125 275.1875 C104.29475626 277.52805755 105.5853627 277.91788477 108 279 C109.26788575 280.01982115 110.51633007 281.06404386 111.75 282.125 C135.20888675 300.60659005 167.48060259 303.26845775 196.1875 300.3125 C223.36097545 296.3204494 248.98049107 283.79308061 265.7265625 261.4609375 C282.80561867 237.53753703 287.28758769 209.74725696 287.31884766 180.95947266 C287.32816445 178.97713317 287.33833567 176.99479755 287.34928894 175.01246643 C287.37640572 169.67256483 287.39168354 164.33268934 287.40471697 158.99273729 C287.42042834 153.39668848 287.44719272 147.80069235 287.4727478 142.2046814 C287.51939459 131.62641815 287.55620664 121.04814484 287.58942068 110.46983182 C287.62774211 98.41891774 287.6771258 86.36805675 287.72740483 74.31718755 C287.83051482 49.54482616 287.91838292 24.77244216 288 0 C315.39 0 342.78 0 371 0 C371 119.13 371 238.26 371 361 C344.27 361 317.54 361 290 361 C290 343.18 290 325.36 290 307 C286.04 307.33 282.08 307.66 278 308 C274.56909938 312.3907065 274.56909938 312.3907065 272.82421875 315.828125 C260.38871168 337.45046278 233.97583467 354.10244884 210.55859375 360.8359375 C167.9383849 372.23049456 117.86667984 370.78268398 78 351 C77.039729 350.53207031 77.039729 350.53207031 76.06005859 350.0546875 C62.84730792 343.55888602 51.71814057 335.09732834 41 325 C40.33613281 324.40058594 39.67226562 323.80117188 38.98828125 323.18359375 C14.76453673 300.43391076 1.18429751 264.48392759 -0.09191239 231.6341666 C-0.12483823 229.10032233 -0.12860186 226.56820964 -0.12025452 224.03416443 C-0.12110894 223.07092335 -0.12196337 222.10768228 -0.12284368 221.11525208 C-0.12448193 217.9094163 -0.11900437 214.70363364 -0.11352539 211.49780273 C-0.11324314 209.19108583 -0.113402 206.88436883 -0.1139679 204.57765198 C-0.11425437 198.33044238 -0.10838178 192.08325206 -0.10139394 185.83604693 C-0.09513553 179.30175547 -0.09455463 172.76746355 -0.09336853 166.23316956 C-0.09078181 155.27059598 -0.08437238 144.30802913 -0.07543945 133.34545898 C-0.06625089 122.0573734 -0.05917712 110.76928974 -0.05493164 99.48120117 C-0.05466892 98.78460872 -0.05440619 98.08801626 -0.05413551 97.37031495 C-0.05283041 93.875478 -0.05156671 90.38064103 -0.05032361 86.88580406 C-0.03996837 57.92386385 -0.02153944 28.96193425 0 0 Z " fill="#6A4DFF" transform="translate(2788,240)"/>
<path d="M0 0 C27.06 0 54.12 0 82 0 C82 39.27 82 78.54 82 119 C120.61 119 159.22 119 199 119 C199 140.12 199 161.24 199 183 C160.39 183 121.78 183 82 183 C82.11965182 220.66214879 82.11965182 220.66214879 82.2578125 258.32421875 C82.3182589 273.68048733 82.37665261 289.03674444 82.421875 304.39306641 C82.45481811 315.57650319 82.49466227 326.75989046 82.54279006 337.94327259 C82.56803187 343.86465553 82.58982009 349.78600572 82.60334396 355.70742798 C82.61618521 361.2822205 82.63826213 366.85690057 82.66738319 372.43163109 C82.67644279 374.47620617 82.68214542 376.52079934 82.68421364 378.56539345 C82.68754758 381.36094283 82.70305576 384.1561756 82.7215271 386.95166016 C82.718625 388.15986404 82.718625 388.15986404 82.71566427 389.39247608 C82.79177532 397.11921756 83.97783358 403.82990983 89 410 C94.60591039 414.06428503 99.7872858 414.15730615 106.53222656 414.20532227 C107.39112488 414.21522186 108.25002319 414.22512146 109.13494873 414.23532104 C111.97014624 414.26687491 114.8053605 414.29166932 117.640625 414.31640625 C119.60789421 414.33698105 121.57515905 414.35797767 123.54241943 414.37937927 C128.71761535 414.43454555 133.89285081 414.48397885 139.06811523 414.53222656 C145.27898478 414.5913187 151.48978215 414.65751673 157.70059204 414.72252655 C167.1336839 414.82046758 176.56682229 414.90937053 186 415 C186 436.45 186 457.9 186 480 C159.6395992 480.08021762 159.6395992 480.08021762 148.27929688 480.09765625 C140.57085365 480.10954579 132.86245857 480.12350916 125.15405273 480.15087891 C118.92945012 480.17283829 112.70489925 480.18461658 106.48026085 480.18975449 C104.12239456 480.19340927 101.76453064 480.20054404 99.40668678 480.21146011 C88.03849201 480.26192936 76.74818942 480.17323993 65.4206543 479.12841797 C64.59074132 479.05280199 63.76082834 478.97718601 62.90576649 478.89927864 C45.08644022 477.03566503 27.48468915 469.25342409 15.67724609 455.45410156 C1.18157827 437.00711366 -0.45624738 418.30989916 -0.34057617 395.74658203 C-0.33972864 393.41942353 -0.34020751 391.09226424 -0.34190369 388.7651062 C-0.34276012 382.48507246 -0.32519149 376.2052126 -0.30418181 369.92521906 C-0.28535612 363.34825695 -0.28365994 356.77129032 -0.28010559 350.19430542 C-0.27235712 339.16742968 -0.25315255 328.14061444 -0.22631836 317.11376953 C-0.19872451 305.76286121 -0.17755155 294.41197024 -0.16479492 283.06103516 C-0.16399093 282.35265641 -0.16318694 281.64427766 -0.16235858 280.91443288 C-0.15541878 274.75125753 -0.14896098 268.5880817 -0.14255047 262.42490578 C-0.11438967 235.9498776 -0.05460852 209.47501744 0 183 C-35.64 183 -71.28 183 -108 183 C-108 161.88 -108 140.76 -108 119 C-72.36 119 -36.72 119 0 119 C0 79.73 0 40.46 0 0 Z " fill="#6A4DFF" transform="translate(108,118)"/>
<path d="M0 0 C37.49625 -0.0928125 37.49625 -0.0928125 75.75 -0.1875 C83.60780273 -0.21481201 91.46560547 -0.24212402 99.56152344 -0.27026367 C109.24658203 -0.28381348 109.24658203 -0.28381348 113.7979126 -0.28633118 C116.93876665 -0.28909687 120.07946455 -0.30022027 123.22027588 -0.31672668 C157.06817816 -0.48648887 190.24132552 0.78247414 216 26 C229.96872232 41.88136276 235.75126736 59.78679648 235.57641602 80.57861328 C235.56254427 82.86769386 235.59679146 85.15266669 235.63476562 87.44140625 C235.73424821 106.54474836 229.7999951 124.70794627 216.36328125 138.6640625 C215.58339844 139.43492187 214.80351563 140.20578125 214 141 C213.25105469 141.77085937 212.50210937 142.54171875 211.73046875 143.3359375 C193.00390343 161.53455653 165.85770351 166.53817117 140.65795898 166.34057617 C139.08395695 166.33965385 137.50995367 166.34006327 135.93595219 166.34167194 C131.77861552 166.34234014 127.62154598 166.32514744 123.46427155 166.30384064 C119.54131876 166.28656072 115.61842596 166.28594082 111.69543457 166.28381348 C100.27608864 166.26816687 88.85679079 166.22628314 77.4375 166.1875 C51.883125 166.125625 26.32875 166.06375 0 166 C0 111.22 0 56.44 0 0 Z " fill="#EBE7FC" transform="translate(1426,161)"/>
<path d="M0 0 C0.79413053 -0.00380567 1.58826105 -0.00761134 2.40645614 -0.01153234 C5.0778961 -0.02187085 7.74912447 -0.0179378 10.42057896 -0.01409245 C12.35102676 -0.0185436 14.28147274 -0.02385724 16.21191603 -0.02996117 C21.52498617 -0.04416588 26.83799789 -0.04580399 32.1510843 -0.04536426 C37.87783007 -0.04701025 43.60455161 -0.06007252 49.33128452 -0.07155704 C61.85578492 -0.09442121 74.38026839 -0.10232887 86.90478683 -0.10738349 C94.72136898 -0.11063823 102.5379462 -0.11715927 110.35452557 -0.12438488 C131.98676399 -0.14395103 153.61899606 -0.16043699 175.25124359 -0.16326141 C176.28908941 -0.16340251 176.28908941 -0.16340251 177.34790181 -0.16354645 C180.15189569 -0.16392493 182.95588957 -0.16428893 185.75988345 -0.16464943 C187.87037916 -0.16492115 189.98087487 -0.16519783 192.09137058 -0.16547489 C193.13745167 -0.16560693 193.13745167 -0.16560693 194.20466572 -0.16574163 C216.12429708 -0.16864803 238.04384032 -0.19075317 259.9634409 -0.22699833 C284.58363349 -0.26770791 309.2037601 -0.29140025 333.82398897 -0.29172093 C346.86248863 -0.29230636 359.90087483 -0.30085391 372.93934536 -0.32971859 C384.03847908 -0.35417668 395.13745795 -0.36155296 406.2366113 -0.34647106 C411.90217317 -0.33927988 417.56742893 -0.3402547 423.23295689 -0.36288166 C428.41628908 -0.3833851 433.59907814 -0.38095232 438.78240389 -0.36000682 C440.66054928 -0.35649538 442.53873319 -0.36149135 444.41682803 -0.37571125 C446.96499668 -0.39376585 449.51123274 -0.38116041 452.05934143 -0.36076355 C453.15980495 -0.37960861 453.15980495 -0.37960861 454.28250006 -0.39883438 C460.00076422 -0.30047524 462.19728065 1.37892807 466.09259129 5.26006222 C467.2791295 6.52026749 468.43468884 7.81106078 469.54330063 9.14033508 C472.83355568 12.99176246 476.29385421 16.60189243 479.8812418 20.17569637 C480.52692936 20.82294393 481.17261692 21.47019148 481.83787078 22.1370526 C483.97876994 24.28190617 486.12318438 26.42320838 488.26764011 28.56450558 C489.81241285 30.11063474 491.35697307 31.65697626 492.90133762 33.20351315 C497.07834337 37.38506217 501.25848711 41.56346081 505.43935323 45.74114966 C509.81612556 50.11538506 514.19045174 54.49206557 518.56517124 58.86835384 C525.90446368 66.20946292 533.24585652 73.54846655 540.5884409 80.88628292 C548.14425313 88.43724545 555.69766337 95.99059846 563.24859715 103.54643917 C571.48077683 111.78394722 579.71460903 120.01979763 587.95093268 128.25316244 C592.30810221 132.6087707 596.66458784 136.96505722 601.01932812 141.32309437 C605.10710075 145.41374596 609.19729328 149.5019621 613.28940296 153.58827496 C614.79395856 155.09150362 616.29765517 156.59559257 617.80044842 158.10058308 C619.84429068 160.14713909 621.89115759 162.19061994 623.93885899 164.23331356 C624.53913735 164.83582264 625.13941571 165.43833173 625.75788432 166.05909866 C628.64994306 169.02271937 628.64994306 169.02271937 632.09259129 171.26006222 C632.09259129 174.56006222 632.09259129 177.86006222 632.09259129 181.26006222 C616.21083925 181.32962424 600.32914148 181.38310487 584.44727516 181.41549873 C577.07240252 181.43094215 569.6976265 181.45198309 562.3228159 181.48638058 C555.89202365 181.51636059 549.46130142 181.53565557 543.03044122 181.5423277 C539.62795937 181.54622547 536.22567774 181.5553324 532.82326031 181.57725239 C529.01716541 181.59908219 525.21148303 181.60202673 521.40533543 181.60063839 C520.28755207 181.61142422 519.16976871 181.62221004 518.01811314 181.63332272 C504.4634932 181.57994883 491.74927043 175.91674136 482.09259129 166.26006222 C478.94080609 162.36269343 475.99518848 158.34519901 473.09259129 154.26006222 C472.32688816 153.25459347 472.32688816 153.25459347 471.54571629 152.22881222 C461.80106323 138.51411533 463.55094638 120.3969331 463.68701553 104.4980166 C463.71231574 101.03477411 463.7143934 97.57151214 463.71911716 94.10819149 C463.73146408 87.57431419 463.76417107 81.04071014 463.80451512 74.50695223 C463.84949372 67.05817549 463.87128488 59.60938452 463.89129686 52.16050541 C463.93291303 36.86020039 464.00310042 21.56016678 464.09259129 6.26006222 C405.38968973 6.3189247 346.68682391 6.39345183 287.98397038 6.4890485 C281.0557407 6.50032697 274.12751078 6.51145873 267.19928074 6.52251339 C266.16512 6.52416724 266.16512 6.52416724 265.11006712 6.5258545 C242.76514476 6.56152014 220.4202239 6.58749893 198.07528331 6.6084519 C174.46103504 6.63064775 150.84683066 6.66388651 127.23261303 6.70876378 C113.08631671 6.73529104 98.94006577 6.75297852 84.79374581 6.75940826 C75.09702134 6.76465883 65.400354 6.78086473 55.70366014 6.80572788 C50.10670585 6.8197541 44.50985386 6.82890945 38.9128809 6.82507038 C33.78850114 6.82166202 28.66433995 6.83201447 23.54000496 6.85329773 C21.68656715 6.8585692 19.83310666 6.85879679 17.97966904 6.85345785 C5.24285728 6.75522549 5.24285728 6.75522549 -6.90740871 10.26006222 C-7.75432278 10.57588253 -8.60123684 10.89170284 -9.47381496 11.21709347 C-14.91843034 13.55050006 -19.32696711 16.52785054 -23.90740871 20.26006222 C-24.49264309 20.68803097 -25.07787746 21.11599972 -25.68084621 21.55693722 C-35.74724428 29.30032035 -41.95299131 41.86416836 -43.90740871 54.26006222 C-44.05519735 57.48038048 -44.04506205 60.69781366 -44.03883648 63.92106056 C-44.04088911 64.90477893 -44.04294175 65.8884973 -44.04505658 66.90202531 C-44.05073836 70.21837945 -44.04926787 73.53469221 -44.04785061 76.85105038 C-44.05043357 79.24474823 -44.05344653 81.63844564 -44.05685401 84.03214246 C-44.06408712 89.93375329 -44.06662703 95.83535572 -44.06718307 101.73696995 C-44.06809678 108.80500252 -44.07476452 115.87302671 -44.08152989 122.94105568 C-44.09759124 140.0242394 -44.10349323 157.10742223 -44.10827864 174.19061215 C-44.11061435 182.27143753 -44.11421697 190.3522622 -44.11797401 198.43308703 C-44.13080937 226.09258292 -44.14152879 253.75207842 -44.14497662 281.41157722 C-44.14519825 283.14793168 -44.14542003 284.88428614 -44.14564197 286.62064059 C-44.14586261 288.36119583 -44.14608309 290.10175108 -44.14630342 291.84230632 C-44.14674597 295.33417873 -44.14719308 298.82605114 -44.14764309 302.31792355 C-44.14775248 303.18370513 -44.14786187 304.04948671 -44.14797458 304.9415041 C-44.15160563 333.01775424 -44.16752756 361.09397856 -44.19083345 389.17021882 C-44.21542674 418.85160797 -44.22914921 448.53298236 -44.23034453 478.21438199 C-44.23051599 481.47233347 -44.23073142 484.73028495 -44.23097897 487.98823643 C-44.23103473 488.79044012 -44.2310905 489.59264382 -44.23114796 490.41915672 C-44.23229882 503.33137115 -44.24332369 516.2435591 -44.25786602 529.15576459 C-44.27222886 542.13294017 -44.2754692 555.11008178 -44.26742604 568.08726313 C-44.26296885 575.79704299 -44.26683395 583.50671325 -44.28266455 591.21647872 C-44.29355913 596.97322576 -44.28877638 602.7298747 -44.27789268 608.48661784 C-44.27592879 610.81570372 -44.27904588 613.14480053 -44.28773704 615.47387102 C-44.29880232 618.63939021 -44.29135968 621.8043544 -44.27934551 624.96985817 C-44.28694071 625.8742835 -44.2945359 626.77870882 -44.30236125 627.71054098 C-44.23248351 636.23800616 -42.12954739 643.77332486 -37.78240871 651.13506222 C-35.99606172 654.1834056 -34.57197901 656.77512043 -33.90740871 660.26006222 C-44.1056423 650.66172472 -50.93200935 639.49105338 -51.59255655 625.30657648 C-51.71427673 619.95585458 -51.69733432 614.61021489 -51.66258144 609.25856686 C-51.66878474 606.8213964 -51.67760599 604.38423144 -51.68880683 601.94707882 C-51.70705348 596.66494243 -51.70681726 591.38329695 -51.68993282 586.10119152 C-51.66489409 578.24649043 -51.67438935 570.39208905 -51.69051635 562.53737813 C-51.71818967 548.50639706 -51.71181394 534.47558825 -51.69100134 520.44460454 C-51.67289958 508.16693996 -51.66641415 495.88933615 -51.67136478 483.61165905 C-51.67167797 482.7964183 -51.67199116 481.98117755 -51.67231383 481.14123254 C-51.67360015 477.8317069 -51.67493937 474.52218128 -51.6763587 471.2126557 C-51.6894921 440.18574468 -51.66848375 409.15894018 -51.63154145 378.13205282 C-51.59893054 350.57849058 -51.5944003 323.0250616 -51.61419582 295.471488 C-51.61923887 288.41419578 -51.6242435 281.35690355 -51.62893867 274.29961109 C-51.62951686 273.43071961 -51.63009504 272.56182813 -51.63069074 271.6666066 C-51.64556057 248.62746169 -51.63726662 225.58832581 -51.6218732 202.54918301 C-51.6202439 200.06972116 -51.61862566 197.5902593 -51.61702319 195.11079742 C-51.61595967 193.46606339 -51.61487997 191.82132937 -51.61378398 190.17659536 C-51.60585677 177.90655031 -51.60983491 165.63654638 -51.61945057 153.36650372 C-51.63028264 139.41385324 -51.62297414 125.46134006 -51.59199478 111.50871716 C-51.57515418 103.70372349 -51.57193914 95.89901039 -51.58857567 88.09401467 C-51.59944229 82.26318689 -51.58410808 76.43261771 -51.55862687 70.60182907 C-51.5523521 68.24539455 -51.55447745 65.88891939 -51.56589731 63.53250419 C-51.63963835 46.95944611 -50.0295969 35.84725823 -39.90740871 22.26006222 C-39.18553371 21.27006222 -38.46365871 20.28006222 -37.71990871 19.26006222 C-30.84411019 11.37376296 -22.58589012 6.01386575 -12.90740871 2.26006222 C-12.19377539 1.91536497 -11.48014206 1.57066771 -10.74488348 1.21552509 C-7.13539389 0.00010167 -3.76294808 -0.01955545 0 0 Z " fill="#6A4DFE" transform="translate(1277.9074087142944,-0.26006221771240234)"/>
<path d="M0 0 C0.79472972 -0.00350607 1.58945944 -0.00701215 2.40827188 -0.01062447 C5.08173403 -0.01995736 7.75497926 -0.01501031 10.42845058 -0.01015663 C12.36032347 -0.01389192 14.29219485 -0.01849295 16.22406381 -0.02388728 C21.54099842 -0.03614729 26.85787025 -0.03585329 32.17481577 -0.03349853 C37.90561087 -0.03309113 43.63638562 -0.04412197 49.36717129 -0.05361366 C60.59678142 -0.07023998 71.82637055 -0.0757239 83.05599196 -0.07683842 C92.17960301 -0.07778791 101.30320713 -0.08189325 110.42681599 -0.08823967 C132.0676381 -0.10298758 153.70845372 -0.11528897 175.34928131 -0.11424255 C176.04142896 -0.1142114 176.73357661 -0.11418024 177.44669843 -0.11414814 C180.95489751 -0.11398192 184.46309658 -0.11378384 187.97129566 -0.11357872 C189.01643457 -0.11351889 189.01643457 -0.11351889 190.0826874 -0.11345784 C191.49170322 -0.11337697 192.90071904 -0.11329337 194.30973485 -0.11320706 C216.24276078 -0.11198093 238.17572493 -0.12700584 260.10873318 -0.15435219 C284.74135646 -0.18505169 309.37393522 -0.2022607 334.00657934 -0.20042574 C347.05282105 -0.19976062 360.09899306 -0.20530676 373.14521885 -0.22678185 C384.24951935 -0.24494289 395.35371855 -0.24938274 406.45802743 -0.235763 C412.12734964 -0.22920824 417.79647721 -0.22920626 423.46578121 -0.2464695 C428.6501791 -0.26209444 433.83422628 -0.25944579 439.01861506 -0.24190123 C440.89941414 -0.23880791 442.78023873 -0.24255046 444.66100777 -0.25362138 C447.20772016 -0.26762577 449.75318231 -0.25724946 452.29985046 -0.24050903 C453.03874684 -0.25044539 453.77764321 -0.26038175 454.53893039 -0.27061921 C457.99997136 -0.22215464 459.79025756 0.02980536 462.5737018 2.16338003 C464.08700466 4.25726891 464.08700466 4.25726891 464.08700466 6.25726891 C463.11284416 6.25824571 462.13868366 6.25922252 461.13500315 6.26022893 C403.41610248 6.31836843 345.69723737 6.39226094 287.97838375 6.48625519 C281.05015407 6.49753366 274.12192416 6.50866542 267.19369411 6.51972008 C266.15953338 6.52137393 266.15953338 6.52137393 265.1044805 6.52306119 C242.75955814 6.55872682 220.41463728 6.58470562 198.06969668 6.60565859 C174.45544842 6.62785443 150.84124404 6.6610932 127.2270264 6.70597047 C113.08073009 6.73249773 98.93447915 6.7501852 84.78815918 6.75661495 C75.09143472 6.76186551 65.39476738 6.77807142 55.69807351 6.80293456 C50.10111922 6.81696079 44.50426724 6.82611614 38.90729427 6.82227707 C33.78291451 6.81886871 28.65875333 6.82922116 23.53441834 6.85050442 C21.68098053 6.85577589 19.82752004 6.85600348 17.97408242 6.85066453 C5.23727066 6.75243218 5.23727066 6.75243218 -6.91299534 10.25726891 C-7.7599094 10.57308922 -8.60682346 10.88890953 -9.47940159 11.21430016 C-14.92401697 13.54770675 -19.33255374 16.52505723 -23.91299534 20.25726891 C-24.49822971 20.68523766 -25.08346409 21.11320641 -25.68643284 21.55414391 C-35.75283091 29.29752704 -41.95857794 41.86137504 -43.91299534 54.25726891 C-44.06078398 57.47758717 -44.05064868 60.69502034 -44.0444231 63.91826725 C-44.04647574 64.90198562 -44.04852837 65.88570399 -44.05064321 66.899232 C-44.05632498 70.21558614 -44.0548545 73.5318989 -44.05343723 76.84825706 C-44.05602019 79.24195491 -44.05903315 81.63565233 -44.06244063 84.02934915 C-44.06967374 89.93095998 -44.07221366 95.83256241 -44.07276969 101.73417664 C-44.0736834 108.80220921 -44.08035114 115.8702334 -44.08711651 122.93826237 C-44.10317786 140.02144609 -44.10907986 157.10462892 -44.11386526 174.18781884 C-44.11620098 182.26864422 -44.11980359 190.34946889 -44.12356064 198.43029372 C-44.13639599 226.08978961 -44.14711541 253.74928511 -44.15056324 281.40878391 C-44.15078487 283.14513837 -44.15100666 284.88149283 -44.15122859 286.61784728 C-44.15144923 288.35840252 -44.15166971 290.09895776 -44.15189004 291.839513 C-44.15233259 295.33138541 -44.15277971 298.82325782 -44.15322971 302.31513023 C-44.1533391 303.18091182 -44.1534485 304.0466934 -44.1535612 304.93871079 C-44.15719225 333.01496093 -44.17311418 361.09118525 -44.19642008 389.1674255 C-44.22101337 418.84881465 -44.23473584 448.53018905 -44.23593116 478.21158868 C-44.23610261 481.46954016 -44.23631804 484.72749164 -44.23656559 487.98544312 C-44.23662136 488.78764681 -44.23667713 489.58985051 -44.23673459 490.41636341 C-44.23788544 503.32857784 -44.24891032 516.24076579 -44.26345265 529.15297128 C-44.27781548 542.13014686 -44.28105583 555.10728847 -44.27301267 568.08446982 C-44.26855548 575.79424968 -44.27242058 583.50391993 -44.28825117 591.2136854 C-44.29914575 596.97043245 -44.29436301 602.72708139 -44.2834793 608.48382453 C-44.28151541 610.8129104 -44.2846325 613.14200722 -44.29332367 615.4710777 C-44.30438895 618.6365969 -44.29694631 621.80156108 -44.28493214 624.96706486 C-44.29252733 625.87149018 -44.30012252 626.77591551 -44.30794787 627.70774767 C-44.23807013 636.23521285 -42.13513402 643.77053155 -37.78799534 651.13226891 C-36.00164834 654.18061229 -34.57756563 656.77232711 -33.91299534 660.25726891 C-44.11122892 650.65893141 -50.93759598 639.48826007 -51.59814317 625.30378317 C-51.71986336 619.95306127 -51.70292095 614.60742158 -51.66816807 609.25577354 C-51.67437137 606.81860308 -51.68319262 604.38143813 -51.69439346 601.94428551 C-51.7126401 596.66214912 -51.71240388 591.38050364 -51.69551945 586.09839821 C-51.67048071 578.24369712 -51.67997597 570.38929574 -51.69610297 562.53458482 C-51.72377629 548.50360375 -51.71740057 534.47279494 -51.69658796 520.44181123 C-51.67848621 508.16414665 -51.67200077 495.88654284 -51.67695141 483.60886574 C-51.67726459 482.79362499 -51.67757778 481.97838424 -51.67790046 481.13843923 C-51.67918677 477.82891359 -51.68052599 474.51938797 -51.68194532 471.20986238 C-51.69507872 440.18295137 -51.67407037 409.15614687 -51.63712807 378.12925951 C-51.60451717 350.57569727 -51.59998693 323.02226829 -51.61978245 295.46869469 C-51.62482549 288.41140247 -51.62983012 281.35411024 -51.6345253 274.29681778 C-51.63510348 273.4279263 -51.63568166 272.55903482 -51.63627736 271.66381329 C-51.65114719 248.62466838 -51.64285324 225.5855325 -51.62745982 202.5463897 C-51.62583052 200.06692784 -51.62421229 197.58746598 -51.62260981 195.10800411 C-51.6215463 193.46327008 -51.6204666 191.81853606 -51.61937061 190.17380205 C-51.6114434 177.903757 -51.61542153 165.63375307 -51.62503719 153.3637104 C-51.63586926 139.41105993 -51.62856077 125.45854675 -51.59758141 111.50592385 C-51.58074081 103.70093018 -51.57752576 95.89621707 -51.59416229 88.09122135 C-51.60502892 82.26039358 -51.5896947 76.4298244 -51.56421349 70.59903575 C-51.55793873 68.24260124 -51.56006407 65.88612608 -51.57148393 63.52971087 C-51.64522497 46.9566528 -50.03518353 35.84446491 -39.91299534 22.25726891 C-39.19112034 21.26726891 -38.46924534 20.27726891 -37.72549534 19.25726891 C-30.84969682 11.37096964 -22.59147674 6.01107244 -12.91299534 2.25726891 C-11.84271818 1.74013661 -11.84271818 1.74013661 -10.75081927 1.2125572 C-7.1392046 -0.00320999 -3.76497317 -0.02101192 0 0 Z " fill="#190D58" transform="translate(1277.91299533844,-0.25726890563964844)"/>
<path d="M0 0 C0.33 0.66 0.66 1.32 1 2 C1.66 2 2.32 2 3 2 C3.20625 3.093125 3.4125 4.18625 3.625 5.3125 C7.16744438 18.95569794 17.33158067 30.93084216 29.25 38.1875 C33.7733236 40.5920036 37.95985541 42.12766728 43 43 C43 43.66 43 44.32 43 45 C84.25 45.33 125.5 45.66 168 46 C168 48.64 168 51.28 168 54 C152.11825284 54.07020163 136.23654785 54.12304266 120.35468388 54.15543652 C112.97981123 54.17087993 105.60503522 54.19192087 98.23022461 54.22631836 C91.79943236 54.25629838 85.36871013 54.27559335 78.93784994 54.28226548 C75.53536809 54.28616325 72.13308646 54.29527018 68.73066902 54.31719017 C64.92457412 54.33901997 61.11889174 54.34196451 57.31274414 54.34057617 C56.19496078 54.351362 55.07717743 54.36214783 53.92552185 54.3732605 C40.37090192 54.31988662 27.65667914 48.65667914 18 39 C14.8482148 35.10263121 11.9025972 31.08513679 9 27 C8.48953125 26.3296875 7.9790625 25.659375 7.453125 24.96875 C2.56361337 18.08721512 0 8.35886208 0 0 Z " fill="#754569" transform="translate(1742,127)"/>
<path d="M0 0 C0.66 0 1.32 0 2 0 C3.48789901 1.50687224 3.48789901 1.50687224 5.20070934 3.56777287 C8.57265511 7.53030194 12.10413588 11.24507094 15.78865051 14.91563416 C16.43433808 15.56288171 17.08002564 16.21012926 17.74527949 16.87699038 C19.88617865 19.02184396 22.03059309 21.16314616 24.17504883 23.30444336 C25.71982157 24.85057252 27.26438179 26.39691404 28.80874634 27.94345093 C32.98575209 32.12499995 37.16589582 36.30339859 41.34676194 40.48108745 C45.72353427 44.85532285 50.09786045 49.23200336 54.47257996 53.60829163 C61.81187239 60.9494007 69.15326524 68.28840433 76.49584961 75.6262207 C84.05166184 83.17718323 91.60507208 90.73053624 99.15600586 98.28637695 C107.38818554 106.523885 115.62201775 114.75973541 123.8583414 122.99310023 C128.21551092 127.34870849 132.57199655 131.704995 136.92673683 136.06303215 C141.01450946 140.15368374 145.104702 144.24189988 149.19681168 148.32821274 C150.70136728 149.8314414 152.20506389 151.33553035 153.70785713 152.84052086 C155.7516994 154.88707687 157.79856631 156.93055772 159.8462677 158.97325134 C160.44654606 159.57576043 161.04682442 160.17826951 161.66529304 160.79903644 C164.55735178 163.76265716 164.55735178 163.76265716 168 166 C168 166.66 168 167.32 168 168 C165 168 165 168 163.54931641 166.62573242 C162.77080322 165.6566394 162.77080322 165.6566394 161.9765625 164.66796875 C157.4203527 159.23188133 152.41025753 154.30191836 147.375 149.3125 C145.9828125 147.92708008 145.9828125 147.92708008 144.5625 146.51367188 C142.83759098 144.79741212 141.11164833 143.08219003 139.38427734 141.3684082 C136.91725328 138.91780402 134.45785176 136.45980553 132 134 C130.61333017 132.61323233 129.22660551 131.22651949 127.83984375 129.83984375 C51.16015625 53.16015625 51.16015625 53.16015625 48.92951965 50.92938232 C47.45554696 49.45551454 45.98116161 47.98205944 44.5065918 46.50878906 C41.46313972 43.46266911 38.42478819 40.41149045 35.38618469 37.36053467 C31.80684631 33.76787445 28.22491663 30.17780274 24.64282227 26.58789062 C22.74939832 24.68996535 20.85723089 22.79079969 18.96606445 20.890625 C16.23621732 18.14870622 13.50320466 15.40997834 10.76953125 12.671875 C9.92058792 11.81777039 9.07164459 10.96366577 8.19697571 10.0836792 C7.41243515 9.29906311 6.62789459 8.51444702 5.81958008 7.70605469 C5.12850662 7.01276062 4.43743317 6.31946655 3.72541809 5.60516357 C2.07844275 3.92180853 2.07844275 3.92180853 0 3 C0 2.01 0 1.02 0 0 Z " fill="#8E7CEE" transform="translate(1742,5)"/>
<path d="M0 0 C0.33 0.66 0.66 1.32 1 2 C1.66 2 2.32 2 3 2 C3.268125 3.19625 3.53625 4.3925 3.8125 5.625 C4.51977478 8.55218832 5.26979272 10.49140816 6.75 13.1875 C8 16 8 16 7.1875 18.875 C6.795625 19.57625 6.40375 20.2775 6 21 C3.28441527 18.28441527 2.7991846 15.23958865 1.875 11.625 C1.69324219 10.95210937 1.51148438 10.27921875 1.32421875 9.5859375 C0.44863469 6.24160138 0 3.4843149 0 0 Z " fill="#835A8A" transform="translate(1742,127)"/>
<path d="M0 0 C0.66 0.33 1.32 0.66 2 1 C-2.60136502 6.53601728 -7.46398272 11.39863498 -13 16 C-13 11.08924079 -9.30469813 8.39044878 -6 5 C-4.05397986 3.23549584 -2.07285289 1.6178364 0 0 Z " fill="#CECCDD" transform="translate(1257,16)"/>
</svg>
