<?xml version="1.0" encoding="UTF-8"?>
<svg version="1.1" xmlns="http://www.w3.org/2000/svg" width="683" height="682">
<path d="M0 0 C0.79413053 -0.00380567 1.58826105 -0.00761134 2.40645614 -0.01153234 C5.0778961 -0.02187085 7.74912447 -0.0179378 10.42057896 -0.01409245 C12.35102676 -0.0185436 14.28147274 -0.02385724 16.21191603 -0.02996117 C21.52498617 -0.04416588 26.83799789 -0.04580399 32.1510843 -0.04536426 C37.87783007 -0.04701025 43.60455161 -0.06007252 49.33128452 -0.07155704 C61.85578492 -0.09442121 74.38026839 -0.10232887 86.90478683 -0.10738349 C94.72136898 -0.11063823 102.5379462 -0.11715927 110.35452557 -0.12438488 C131.98676399 -0.14395103 153.61899606 -0.16043699 175.25124359 -0.16326141 C176.28908941 -0.16340251 176.28908941 -0.16340251 177.34790181 -0.16354645 C180.15189569 -0.16392493 182.95588957 -0.16428893 185.75988345 -0.16464943 C187.87037916 -0.16492115 189.98087487 -0.16519783 192.09137058 -0.16547489 C193.13745167 -0.16560693 193.13745167 -0.16560693 194.20466572 -0.16574163 C216.12429708 -0.16864803 238.04384032 -0.19075317 259.9634409 -0.22699833 C284.58363349 -0.26770791 309.2037601 -0.29140025 333.82398897 -0.29172093 C346.86248863 -0.29230636 359.90087483 -0.30085391 372.93934536 -0.32971859 C384.03847908 -0.35417668 395.13745795 -0.36155296 406.2366113 -0.34647106 C411.90217317 -0.33927988 417.56742893 -0.3402547 423.23295689 -0.36288166 C428.41628908 -0.3833851 433.59907814 -0.38095232 438.78240389 -0.36000682 C440.66054928 -0.35649538 442.53873319 -0.36149135 444.41682803 -0.37571125 C446.96499668 -0.39376585 449.51123274 -0.38116041 452.05934143 -0.36076355 C453.15980495 -0.37960861 453.15980495 -0.37960861 454.28250006 -0.39883438 C460.00076422 -0.30047524 462.19728065 1.37892807 466.09259129 5.26006222 C467.2791295 6.52026749 468.43468884 7.81106078 469.54330063 9.14033508 C472.83355568 12.99176246 476.29385421 16.60189243 479.8812418 20.17569637 C480.52692936 20.82294393 481.17261692 21.47019148 481.83787078 22.1370526 C483.97876994 24.28190617 486.12318438 26.42320838 488.26764011 28.56450558 C489.81241285 30.11063474 491.35697307 31.65697626 492.90133762 33.20351315 C497.07834337 37.38506217 501.25848711 41.56346081 505.43935323 45.74114966 C509.81612556 50.11538506 514.19045174 54.49206557 518.56517124 58.86835384 C525.90446368 66.20946292 533.24585652 73.54846655 540.5884409 80.88628292 C548.14425313 88.43724545 555.69766337 95.99059846 563.24859715 103.54643917 C571.48077683 111.78394722 579.71460903 120.01979763 587.95093268 128.25316244 C592.30810221 132.6087707 596.66458784 136.96505722 601.01932812 141.32309437 C605.10710075 145.41374596 609.19729328 149.5019621 613.28940296 153.58827496 C614.79395856 155.09150362 616.29765517 156.59559257 617.80044842 158.10058308 C619.84429068 160.14713909 621.89115759 162.19061994 623.93885899 164.23331356 C624.53913735 164.83582264 625.13941571 165.43833173 625.75788432 166.05909866 C628.64994306 169.02271937 628.64994306 169.02271937 632.09259129 171.26006222 C631.76259129 326.03006222 631.43259129 480.80006222 631.09259129 640.26006222 C630.43259129 640.26006222 629.77259129 640.26006222 629.09259129 640.26006222 C628.76259129 642.90006222 628.43259129 645.54006222 628.09259129 648.26006222 C627.43259129 648.26006222 626.77259129 648.26006222 626.09259129 648.26006222 C626.03071629 649.25006222 626.03071629 649.25006222 625.96759129 650.26006222 C624.68148716 654.66956207 621.95047715 657.7261893 619.09259129 661.26006222 C618.47126316 662.07474972 617.84993504 662.88943722 617.20977879 663.72881222 C610.6572438 671.56283928 602.5175723 676.60457893 593.09259129 680.26006222 C592.41813994 680.60487469 591.7436886 680.94968717 591.04879934 681.30494851 C586.78452764 682.68268116 582.74028193 682.53557177 578.28544998 682.51453781 C576.7861806 682.51934753 576.7861806 682.51934753 575.25662294 682.52425441 C571.88651444 682.53259687 568.51658169 682.52661524 565.14647007 682.52075863 C562.71422292 682.52377738 560.28197673 682.52766546 557.84973222 682.5323512 C552.55071679 682.54051656 547.25175343 682.5424218 541.95273685 682.53884792 C534.07285607 682.53354739 526.19301279 682.53962969 518.31313609 682.54793086 C503.4215329 682.56318681 488.5299467 682.56487426 473.63833734 682.56240783 C462.13966587 682.56057642 450.64099998 682.56233158 439.14232922 682.56663227 C437.49134346 682.56723467 435.8403577 682.56783587 434.18937195 682.56843587 C431.70159851 682.56934311 429.21382507 682.57025178 426.72605164 682.57116823 C403.58973052 682.5796003 380.45341151 682.58393172 357.31708908 682.57976151 C356.44453336 682.57960513 355.57197763 682.57944875 354.67298082 682.57928764 C350.25035457 682.57848184 345.82772833 682.57763606 341.4051021 682.57677434 C340.52672897 682.57660325 339.64835585 682.57643216 338.74336535 682.57625589 C336.96708036 682.57590923 335.19079536 682.5755607 333.41451036 682.5752103 C305.77520896 682.56985303 278.13593947 682.57778264 250.49664402 682.59624386 C219.4548889 682.61695333 188.41315354 682.62768854 157.37139112 682.62366837 C154.06236096 682.62327302 150.75333081 682.62291147 147.44430065 682.62257099 C146.22212031 682.62243489 146.22212031 682.62243489 144.97524945 682.62229605 C132.66722463 682.62112935 120.35921975 682.62778392 108.05119991 682.63838291 C94.055072 682.6504232 80.05898805 682.65200745 66.0628595 682.63959274 C58.22824267 682.63295464 50.39373088 682.63461703 42.55912242 682.64818126 C36.713001 682.65737589 30.86696551 682.65093143 25.02084807 682.63833346 C22.65276866 682.63567062 20.28467706 682.63810245 17.91660955 682.64606933 C14.70329914 682.65613171 11.49054387 682.64779026 8.27725601 682.63479233 C7.35313755 682.64210167 6.42901908 682.64941102 5.47689703 682.65694186 C-7.5887598 682.54703796 -19.22732838 675.47409044 -28.59490871 666.76006222 C-30.6246837 664.56571088 -31.60217275 662.87053414 -32.90740871 660.26006222 C-33.89740871 659.93006222 -34.88740871 659.60006222 -35.90740871 659.26006222 C-41.95124093 653.115078 -45.7586525 646.20517963 -48.90740871 638.26006222 C-49.42554224 637.24695188 -49.42554224 637.24695188 -49.95414311 636.21337467 C-51.32892477 631.95416319 -51.18576952 627.91339965 -51.16747093 623.46409416 C-51.1712766 622.46577962 -51.17508227 621.46746509 -51.17900327 620.43889859 C-51.18936069 617.07283299 -51.18540519 613.70693473 -51.18156338 610.34085751 C-51.18601354 607.91146064 -51.19132684 605.48206523 -51.1974321 603.05267197 C-51.20867616 597.75978133 -51.21364459 592.4669394 -51.21311092 587.17404079 C-51.2123182 579.30304389 -51.22286233 571.43209057 -51.23552649 563.5611053 C-51.260278 547.86539725 -51.26905064 532.16969975 -51.27406298 516.47397487 C-51.27432416 515.66089841 -51.27458533 514.84782195 -51.27485442 514.0101068 C-51.2751147 513.19540631 -51.27537497 512.38070581 -51.27564313 511.54131742 C-51.27872451 502.51606137 -51.28522899 493.49080826 -51.29185581 484.46555424 C-51.31150575 457.20764051 -51.32790866 429.94972996 -51.33073235 402.6918087 C-51.33082641 401.81975385 -51.33092047 400.947699 -51.33101738 400.04921824 C-51.33139586 396.51511623 -51.33175986 392.98101421 -51.33212036 389.4469122 C-51.33239208 386.78689124 -51.33266876 384.12687028 -51.33294582 381.46684933 C-51.33303385 380.58787568 -51.33312187 379.70890203 -51.33321256 378.80329282 C-51.33611744 351.19078797 -51.35820718 323.57835315 -51.39446926 295.96587276 C-51.43520107 264.94898068 -51.45889096 233.93213632 -51.45919186 202.91521603 C-51.45928868 199.60723753 -51.4594554 196.29925905 -51.45967197 192.99128056 C-51.45971609 192.17676335 -51.4597602 191.36224614 -51.45980565 190.5230466 C-51.4609253 177.41780275 -51.4783313 164.31262907 -51.50149129 151.20740782 C-51.52434138 138.03302313 -51.52855422 124.85873317 -51.513942 111.68433594 C-51.50579438 103.85937354 -51.5114676 96.03470968 -51.53712284 88.20978352 C-51.55474178 82.36375241 -51.54616578 76.51794877 -51.52747775 70.67191458 C-51.52397781 68.30914425 -51.528914 65.94634305 -51.54318219 63.58361321 C-51.67177573 40.82043759 -51.67177573 40.82043759 -45.90740871 31.26006222 C-45.38975632 30.40129921 -44.87210392 29.5425362 -44.33876508 28.65775007 C-42.94727987 26.44836908 -41.46686723 24.35335155 -39.90740871 22.26006222 C-39.18553371 21.27006222 -38.46365871 20.28006222 -37.71990871 19.26006222 C-30.84411019 11.37376296 -22.58589012 6.01386575 -12.90740871 2.26006222 C-12.19377539 1.91536497 -11.48014206 1.57066771 -10.74488348 1.21552509 C-7.13539389 0.00010167 -3.76294808 -0.01955545 0 0 Z " fill="#E3DEFC" transform="translate(50.907408714294434,-0.26006221771240234)"/>
<path d="M0 0 C42.219375 -0.04125 84.43875 -0.0825 127.9375 -0.125 C141.252146 -0.14320801 154.56679199 -0.16141602 168.28491211 -0.18017578 C184.58508301 -0.18920898 184.58508301 -0.18920898 192.22389221 -0.19088745 C197.5414968 -0.19274538 202.85906026 -0.20005129 208.176651 -0.21115112 C214.97423619 -0.22531907 221.77176276 -0.22896938 228.56936181 -0.22614455 C231.05490701 -0.22673465 233.54045438 -0.23065887 236.02598751 -0.23843026 C252.94136753 -0.28883214 269.28213226 0.28765865 285.8125 4.25 C286.73063477 4.46615967 287.64876953 4.68231934 288.59472656 4.9050293 C316.20698796 11.54760161 342.00972139 21.65106119 364 40 C365.41732422 41.16982422 365.41732422 41.16982422 366.86328125 42.36328125 C378.53058714 52.44634192 386.82744004 64.47553912 394 78 C394.47050781 78.8146875 394.94101562 79.629375 395.42578125 80.46875 C398.31608607 85.69456429 400.06530661 91.09329739 401.6875 96.8125 C401.99143677 97.87839355 401.99143677 97.87839355 402.30151367 98.96582031 C405.79551676 111.97394863 406.37282045 124.77131398 406.37060547 138.16308594 C406.37496128 141.09890564 406.41134381 144.03319635 406.44921875 146.96875 C406.61384334 174.5211444 399.25063473 200.82626566 381 222 C380.48566406 222.63550781 379.97132813 223.27101563 379.44140625 223.92578125 C375.71485255 228.48045799 371.54767198 232.27645309 367 236 C365.59427734 237.16208984 365.59427734 237.16208984 364.16015625 238.34765625 C353.5198429 246.94828219 335.27813837 261 321 261 C321 264.96 321 268.92 321 273 C322.60875 273.12375 324.2175 273.2475 325.875 273.375 C341.80848035 274.89537026 355.65928374 279.5900087 368 290 C368.71671875 290.58136719 369.4334375 291.16273438 370.171875 291.76171875 C379.9604368 300.50692609 384.53292199 312.41063807 386.52734375 325.05078125 C386.83634769 327.92272831 386.83634769 327.92272831 388 330 C388.09530088 332.36782704 388.13018549 334.70603921 388.12025452 337.07400513 C388.12153615 338.17912754 388.12153615 338.17912754 388.12284368 339.30657566 C388.1244975 341.7879042 388.11897871 344.26916591 388.11352539 346.75048828 C388.11324347 348.52415973 388.11340134 350.2978313 388.1139679 352.07150269 C388.11425569 356.89768677 388.1083619 361.72384618 388.10139394 366.55002451 C388.09515736 371.58957196 388.09455636 376.62911994 388.09336853 381.66867065 C388.09025612 391.21675431 388.08204393 400.76482656 388.07201904 410.31290519 C388.05876907 423.21171162 388.05335727 436.11052115 388.04751682 449.00933266 C388.03810398 469.33956365 388.01818446 489.66977058 388 510 C359.29 510 330.58 510 301 510 C300.96261719 497.91632813 300.92523438 485.83265625 300.88671875 473.3828125 C300.85644208 465.72655104 300.82541769 458.0703047 300.79101562 450.4140625 C300.73655313 438.26238377 300.68513905 426.11074702 300.65356445 413.95898438 C300.63055345 405.10840835 300.59712076 396.25794276 300.55129844 387.40745437 C300.52740807 382.72342356 300.50865188 378.03950183 300.50238609 373.35541153 C300.49631628 368.94112046 300.47624821 364.52710835 300.44572449 360.11292076 C300.43697458 358.49813338 300.43321533 356.88330949 300.43499184 355.26849937 C300.44569567 341.04177637 298.60965848 330.12266922 288.4921875 319.40234375 C276.72916136 308.89275482 261.12307294 309.69947867 246.29785156 309.68115234 C244.514195 309.67172492 242.73054279 309.66144344 240.9468956 309.6503849 C236.20303961 309.62330065 231.45921427 309.60778907 226.71530151 309.59480286 C222.25140367 309.58079274 217.7875878 309.55617475 213.32373047 309.5324707 C200.29920054 309.46940956 187.27459334 309.42321892 174.25 309.375 C130.56625 309.189375 130.56625 309.189375 86 309 C86 375.33 86 441.66 86 510 C57.62 510 29.24 510 0 510 C0 341.7 0 173.4 0 0 Z " fill="#DA41A9" transform="translate(114,84)"/>
<path d="M0 0 C25.20375 -0.061875 50.4075 -0.12375 76.375 -0.1875 C84.30321777 -0.21481201 92.23143555 -0.24212402 100.39990234 -0.27026367 C110.1574707 -0.28381348 110.1574707 -0.28381348 114.74014282 -0.28633118 C117.90858394 -0.28910144 121.07687089 -0.30024382 124.24526978 -0.31672668 C165.50071956 -0.52193674 165.50071956 -0.52193674 181.8125 5.75 C182.85120239 6.13623535 182.85120239 6.13623535 183.91088867 6.53027344 C203.8548066 14.18175698 219.59646189 26.98954995 228.62084961 46.66503906 C233.258178 57.87868853 234.67752562 68.5555293 234.57641602 80.57861328 C234.56254427 82.86769386 234.59679146 85.15266669 234.63476562 87.44140625 C234.73424821 106.54474836 228.7999951 124.70794627 215.36328125 138.6640625 C214.58339844 139.43492187 213.80351562 140.20578125 213 141 C212.25105469 141.77085937 211.50210938 142.54171875 210.73046875 143.3359375 C192.03382857 161.50547506 164.91587052 166.539229 139.74975586 166.34057617 C138.18576613 166.33965382 136.62177516 166.34006332 135.05778599 166.34167194 C130.92738288 166.34234007 126.79724872 166.32514907 122.66690826 166.30384064 C118.76918331 166.28655903 114.8715187 166.28594073 110.97375488 166.28381348 C99.62830195 166.26816769 88.28289743 166.22628397 76.9375 166.1875 C51.548125 166.125625 26.15875 166.06375 0 166 C0 111.22 0 56.44 0 0 Z " fill="#ECE8FD" transform="translate(200,155)"/>
<path d="M0 0 C0.79413053 -0.00380567 1.58826105 -0.00761134 2.40645614 -0.01153234 C5.0778961 -0.02187085 7.74912447 -0.0179378 10.42057896 -0.01409245 C12.35102676 -0.0185436 14.28147274 -0.02385724 16.21191603 -0.02996117 C21.52498617 -0.04416588 26.83799789 -0.04580399 32.1510843 -0.04536426 C37.87783007 -0.04701025 43.60455161 -0.06007252 49.33128452 -0.07155704 C61.85578492 -0.09442121 74.38026839 -0.10232887 86.90478683 -0.10738349 C94.72136898 -0.11063823 102.5379462 -0.11715927 110.35452557 -0.12438488 C131.98676399 -0.14395103 153.61899606 -0.16043699 175.25124359 -0.16326141 C176.28908941 -0.16340251 176.28908941 -0.16340251 177.34790181 -0.16354645 C180.15189569 -0.16392493 182.95588957 -0.16428893 185.75988345 -0.16464943 C187.87037916 -0.16492115 189.98087487 -0.16519783 192.09137058 -0.16547489 C193.13745167 -0.16560693 193.13745167 -0.16560693 194.20466572 -0.16574163 C216.12429708 -0.16864803 238.04384032 -0.19075317 259.9634409 -0.22699833 C284.58363349 -0.26770791 309.2037601 -0.29140025 333.82398897 -0.29172093 C346.86248863 -0.29230636 359.90087483 -0.30085391 372.93934536 -0.32971859 C384.03847908 -0.35417668 395.13745795 -0.36155296 406.2366113 -0.34647106 C411.90217317 -0.33927988 417.56742893 -0.3402547 423.23295689 -0.36288166 C428.41628908 -0.3833851 433.59907814 -0.38095232 438.78240389 -0.36000682 C440.66054928 -0.35649538 442.53873319 -0.36149135 444.41682803 -0.37571125 C446.96499668 -0.39376585 449.51123274 -0.38116041 452.05934143 -0.36076355 C453.15980495 -0.37960861 453.15980495 -0.37960861 454.28250006 -0.39883438 C460.00076422 -0.30047524 462.19728065 1.37892807 466.09259129 5.26006222 C467.2791295 6.52026749 468.43468884 7.81106078 469.54330063 9.14033508 C472.83355568 12.99176246 476.29385421 16.60189243 479.8812418 20.17569637 C480.52692936 20.82294393 481.17261692 21.47019148 481.83787078 22.1370526 C483.97876994 24.28190617 486.12318438 26.42320838 488.26764011 28.56450558 C489.81241285 30.11063474 491.35697307 31.65697626 492.90133762 33.20351315 C497.07834337 37.38506217 501.25848711 41.56346081 505.43935323 45.74114966 C509.81612556 50.11538506 514.19045174 54.49206557 518.56517124 58.86835384 C525.90446368 66.20946292 533.24585652 73.54846655 540.5884409 80.88628292 C548.14425313 88.43724545 555.69766337 95.99059846 563.24859715 103.54643917 C571.48077683 111.78394722 579.71460903 120.01979763 587.95093268 128.25316244 C592.30810221 132.6087707 596.66458784 136.96505722 601.01932812 141.32309437 C605.10710075 145.41374596 609.19729328 149.5019621 613.28940296 153.58827496 C614.79395856 155.09150362 616.29765517 156.59559257 617.80044842 158.10058308 C619.84429068 160.14713909 621.89115759 162.19061994 623.93885899 164.23331356 C624.53913735 164.83582264 625.13941571 165.43833173 625.75788432 166.05909866 C628.64994306 169.02271937 628.64994306 169.02271937 632.09259129 171.26006222 C632.09259129 174.56006222 632.09259129 177.86006222 632.09259129 181.26006222 C616.27995796 181.37617245 600.4674774 181.46522099 584.65452385 181.51912308 C577.31105882 181.54482425 569.96786474 181.57981813 562.62457371 181.63725948 C556.21864554 181.68734431 549.81291375 181.7194119 543.4067952 181.73050469 C540.01967608 181.73698153 536.63311838 181.75203029 533.24618053 181.7887125 C529.45026777 181.8252778 525.65549895 181.82999581 521.85943699 181.82768917 C520.20433361 181.85465374 520.20433361 181.85465374 518.5157938 181.88216305 C506.63068838 181.80457067 496.46435174 177.4170121 487.09259129 170.26006222 C485.87056004 169.35707394 485.87056004 169.35707394 484.62384129 168.43584347 C474.14463335 159.4282527 465.39778384 145.16253009 464.09259129 131.26006222 C463.95288056 127.16999433 463.96620192 123.08287063 463.9790659 118.99077511 C463.97891987 117.7705566 463.97877384 116.5503381 463.97862339 115.29314327 C463.97919861 111.96512689 463.98419658 108.63717337 463.99119735 105.3091681 C463.99746989 101.82449388 463.99803776 98.33981873 463.99922276 94.85513973 C464.0023246 88.26445333 464.01052247 81.67378362 464.02057225 75.08310455 C464.03176907 67.57643682 464.03725281 60.06976827 464.04226768 52.56309426 C464.05270609 37.1287406 464.07028324 21.69440356 464.09259129 6.26006222 C405.38968973 6.3189247 346.68682391 6.39345183 287.98397038 6.4890485 C281.0557407 6.50032697 274.12751078 6.51145873 267.19928074 6.52251339 C266.16512 6.52416724 266.16512 6.52416724 265.11006712 6.5258545 C242.76514476 6.56152014 220.4202239 6.58749893 198.07528331 6.6084519 C174.46103504 6.63064775 150.84683066 6.66388651 127.23261303 6.70876378 C113.08631671 6.73529104 98.94006577 6.75297852 84.79374581 6.75940826 C75.09702134 6.76465883 65.400354 6.78086473 55.70366014 6.80572788 C50.10670585 6.8197541 44.50985386 6.82890945 38.9128809 6.82507038 C33.78850114 6.82166202 28.66433995 6.83201447 23.54000496 6.85329773 C21.68656715 6.8585692 19.83310666 6.85879679 17.97966904 6.85345785 C5.24285728 6.75522549 5.24285728 6.75522549 -6.90740871 10.26006222 C-7.75432278 10.57588253 -8.60123684 10.89170284 -9.47381496 11.21709347 C-14.91843034 13.55050006 -19.32696711 16.52785054 -23.90740871 20.26006222 C-24.49264309 20.68803097 -25.07787746 21.11599972 -25.68084621 21.55693722 C-35.74724428 29.30032035 -41.95299131 41.86416836 -43.90740871 54.26006222 C-44.05519735 57.48038048 -44.04506205 60.69781366 -44.03883648 63.92106056 C-44.04088911 64.90477893 -44.04294175 65.8884973 -44.04505658 66.90202531 C-44.05073836 70.21837945 -44.04926787 73.53469221 -44.04785061 76.85105038 C-44.05043357 79.24474823 -44.05344653 81.63844564 -44.05685401 84.03214246 C-44.06408712 89.93375329 -44.06662703 95.83535572 -44.06718307 101.73696995 C-44.06809678 108.80500252 -44.07476452 115.87302671 -44.08152989 122.94105568 C-44.09759124 140.0242394 -44.10349323 157.10742223 -44.10827864 174.19061215 C-44.11061435 182.27143753 -44.11421697 190.3522622 -44.11797401 198.43308703 C-44.13080937 226.09258292 -44.14152879 253.75207842 -44.14497662 281.41157722 C-44.14519825 283.14793168 -44.14542003 284.88428614 -44.14564197 286.62064059 C-44.14586261 288.36119583 -44.14608309 290.10175108 -44.14630342 291.84230632 C-44.14674597 295.33417873 -44.14719308 298.82605114 -44.14764309 302.31792355 C-44.14775248 303.18370513 -44.14786187 304.04948671 -44.14797458 304.9415041 C-44.15160563 333.01775424 -44.16752756 361.09397856 -44.19083345 389.17021882 C-44.21542674 418.85160797 -44.22914921 448.53298236 -44.23034453 478.21438199 C-44.23051599 481.47233347 -44.23073142 484.73028495 -44.23097897 487.98823643 C-44.23103473 488.79044012 -44.2310905 489.59264382 -44.23114796 490.41915672 C-44.23229882 503.33137115 -44.24332369 516.2435591 -44.25786602 529.15576459 C-44.27222886 542.13294017 -44.2754692 555.11008178 -44.26742604 568.08726313 C-44.26296885 575.79704299 -44.26683395 583.50671325 -44.28266455 591.21647872 C-44.29355913 596.97322576 -44.28877638 602.7298747 -44.27789268 608.48661784 C-44.27592879 610.81570372 -44.27904588 613.14480053 -44.28773704 615.47387102 C-44.29880232 618.63939021 -44.29135968 621.8043544 -44.27934551 624.96985817 C-44.28694071 625.8742835 -44.2945359 626.77870882 -44.30236125 627.71054098 C-44.23248351 636.23800616 -42.12954739 643.77332486 -37.78240871 651.13506222 C-35.99606172 654.1834056 -34.57197901 656.77512043 -33.90740871 660.26006222 C-44.1056423 650.66172472 -50.93200935 639.49105338 -51.59255655 625.30657648 C-51.71427673 619.95585458 -51.69733432 614.61021489 -51.66258144 609.25856686 C-51.66878474 606.8213964 -51.67760599 604.38423144 -51.68880683 601.94707882 C-51.70705348 596.66494243 -51.70681726 591.38329695 -51.68993282 586.10119152 C-51.66489409 578.24649043 -51.67438935 570.39208905 -51.69051635 562.53737813 C-51.71818967 548.50639706 -51.71181394 534.47558825 -51.69100134 520.44460454 C-51.67289958 508.16693996 -51.66641415 495.88933615 -51.67136478 483.61165905 C-51.67167797 482.7964183 -51.67199116 481.98117755 -51.67231383 481.14123254 C-51.67360015 477.8317069 -51.67493937 474.52218128 -51.6763587 471.2126557 C-51.6894921 440.18574468 -51.66848375 409.15894018 -51.63154145 378.13205282 C-51.59893054 350.57849058 -51.5944003 323.0250616 -51.61419582 295.471488 C-51.61923887 288.41419578 -51.6242435 281.35690355 -51.62893867 274.29961109 C-51.62951686 273.43071961 -51.63009504 272.56182813 -51.63069074 271.6666066 C-51.64556057 248.62746169 -51.63726662 225.58832581 -51.6218732 202.54918301 C-51.6202439 200.06972116 -51.61862566 197.5902593 -51.61702319 195.11079742 C-51.61595967 193.46606339 -51.61487997 191.82132937 -51.61378398 190.17659536 C-51.60585677 177.90655031 -51.60983491 165.63654638 -51.61945057 153.36650372 C-51.63028264 139.41385324 -51.62297414 125.46134006 -51.59199478 111.50871716 C-51.57515418 103.70372349 -51.57193914 95.89901039 -51.58857567 88.09401467 C-51.59944229 82.26318689 -51.58410808 76.43261771 -51.55862687 70.60182907 C-51.5523521 68.24539455 -51.55447745 65.88891939 -51.56589731 63.53250419 C-51.63963835 46.95944611 -50.0295969 35.84725823 -39.90740871 22.26006222 C-39.18553371 21.27006222 -38.46365871 20.28006222 -37.71990871 19.26006222 C-30.84411019 11.37376296 -22.58589012 6.01386575 -12.90740871 2.26006222 C-12.19377539 1.91536497 -11.48014206 1.57066771 -10.74488348 1.21552509 C-7.13539389 0.00010167 -3.76294808 -0.01955545 0 0 Z " fill="#6A4DFE" transform="translate(50.907408714294434,-0.26006221771240234)"/>
<path d="M0 0 C0.79472972 -0.00350607 1.58945944 -0.00701215 2.40827188 -0.01062447 C5.08173403 -0.01995736 7.75497926 -0.01501031 10.42845058 -0.01015663 C12.36032347 -0.01389192 14.29219485 -0.01849295 16.22406381 -0.02388728 C21.54099842 -0.03614729 26.85787025 -0.03585329 32.17481577 -0.03349853 C37.90561087 -0.03309113 43.63638562 -0.04412197 49.36717129 -0.05361366 C60.59678142 -0.07023998 71.82637055 -0.0757239 83.05599196 -0.07683842 C92.17960301 -0.07778791 101.30320713 -0.08189325 110.42681599 -0.08823967 C132.0676381 -0.10298758 153.70845372 -0.11528897 175.34928131 -0.11424255 C176.04142896 -0.1142114 176.73357661 -0.11418024 177.44669843 -0.11414814 C180.95489751 -0.11398192 184.46309658 -0.11378384 187.97129566 -0.11357872 C189.01643457 -0.11351889 189.01643457 -0.11351889 190.0826874 -0.11345784 C191.49170322 -0.11337697 192.90071904 -0.11329337 194.30973485 -0.11320706 C216.24276078 -0.11198093 238.17572493 -0.12700584 260.10873318 -0.15435219 C284.74135646 -0.18505169 309.37393522 -0.2022607 334.00657934 -0.20042574 C347.05282105 -0.19976062 360.09899306 -0.20530676 373.14521885 -0.22678185 C384.24951935 -0.24494289 395.35371855 -0.24938274 406.45802743 -0.235763 C412.12734964 -0.22920824 417.79647721 -0.22920626 423.46578121 -0.2464695 C428.6501791 -0.26209444 433.83422628 -0.25944579 439.01861506 -0.24190123 C440.89941414 -0.23880791 442.78023873 -0.24255046 444.66100777 -0.25362138 C447.20772016 -0.26762577 449.75318231 -0.25724946 452.29985046 -0.24050903 C453.03874684 -0.25044539 453.77764321 -0.26038175 454.53893039 -0.27061921 C457.99997136 -0.22215464 459.79025756 0.02980536 462.5737018 2.16338003 C464.08700466 4.25726891 464.08700466 4.25726891 464.08700466 6.25726891 C463.11284416 6.25824571 462.13868366 6.25922252 461.13500315 6.26022893 C403.41610248 6.31836843 345.69723737 6.39226094 287.97838375 6.48625519 C281.05015407 6.49753366 274.12192416 6.50866542 267.19369411 6.51972008 C266.15953338 6.52137393 266.15953338 6.52137393 265.1044805 6.52306119 C242.75955814 6.55872682 220.41463728 6.58470562 198.06969668 6.60565859 C174.45544842 6.62785443 150.84124404 6.6610932 127.2270264 6.70597047 C113.08073009 6.73249773 98.93447915 6.7501852 84.78815918 6.75661495 C75.09143472 6.76186551 65.39476738 6.77807142 55.69807351 6.80293456 C50.10111922 6.81696079 44.50426724 6.82611614 38.90729427 6.82227707 C33.78291451 6.81886871 28.65875333 6.82922116 23.53441834 6.85050442 C21.68098053 6.85577589 19.82752004 6.85600348 17.97408242 6.85066453 C5.23727066 6.75243218 5.23727066 6.75243218 -6.91299534 10.25726891 C-7.7599094 10.57308922 -8.60682346 10.88890953 -9.47940159 11.21430016 C-14.92401697 13.54770675 -19.33255374 16.52505723 -23.91299534 20.25726891 C-24.49822971 20.68523766 -25.08346409 21.11320641 -25.68643284 21.55414391 C-35.75283091 29.29752704 -41.95857794 41.86137504 -43.91299534 54.25726891 C-44.06078398 57.47758717 -44.05064868 60.69502034 -44.0444231 63.91826725 C-44.04647574 64.90198562 -44.04852837 65.88570399 -44.05064321 66.899232 C-44.05632498 70.21558614 -44.0548545 73.5318989 -44.05343723 76.84825706 C-44.05602019 79.24195491 -44.05903315 81.63565233 -44.06244063 84.02934915 C-44.06967374 89.93095998 -44.07221366 95.83256241 -44.07276969 101.73417664 C-44.0736834 108.80220921 -44.08035114 115.8702334 -44.08711651 122.93826237 C-44.10317786 140.02144609 -44.10907986 157.10462892 -44.11386526 174.18781884 C-44.11620098 182.26864422 -44.11980359 190.34946889 -44.12356064 198.43029372 C-44.13639599 226.08978961 -44.14711541 253.74928511 -44.15056324 281.40878391 C-44.15078487 283.14513837 -44.15100666 284.88149283 -44.15122859 286.61784728 C-44.15144923 288.35840252 -44.15166971 290.09895776 -44.15189004 291.839513 C-44.15233259 295.33138541 -44.15277971 298.82325782 -44.15322971 302.31513023 C-44.1533391 303.18091182 -44.1534485 304.0466934 -44.1535612 304.93871079 C-44.15719225 333.01496093 -44.17311418 361.09118525 -44.19642008 389.1674255 C-44.22101337 418.84881465 -44.23473584 448.53018905 -44.23593116 478.21158868 C-44.23610261 481.46954016 -44.23631804 484.72749164 -44.23656559 487.98544312 C-44.23662136 488.78764681 -44.23667713 489.58985051 -44.23673459 490.41636341 C-44.23788544 503.32857784 -44.24891032 516.24076579 -44.26345265 529.15297128 C-44.27781548 542.13014686 -44.28105583 555.10728847 -44.27301267 568.08446982 C-44.26855548 575.79424968 -44.27242058 583.50391993 -44.28825117 591.2136854 C-44.29914575 596.97043245 -44.29436301 602.72708139 -44.2834793 608.48382453 C-44.28151541 610.8129104 -44.2846325 613.14200722 -44.29332367 615.4710777 C-44.30438895 618.6365969 -44.29694631 621.80156108 -44.28493214 624.96706486 C-44.29252733 625.87149018 -44.30012252 626.77591551 -44.30794787 627.70774767 C-44.23807013 636.23521285 -42.13513402 643.77053155 -37.78799534 651.13226891 C-36.00164834 654.18061229 -34.57756563 656.77232711 -33.91299534 660.25726891 C-44.11122892 650.65893141 -50.93759598 639.48826007 -51.59814317 625.30378317 C-51.71986336 619.95306127 -51.70292095 614.60742158 -51.66816807 609.25577354 C-51.67437137 606.81860308 -51.68319262 604.38143813 -51.69439346 601.94428551 C-51.7126401 596.66214912 -51.71240388 591.38050364 -51.69551945 586.09839821 C-51.67048071 578.24369712 -51.67997597 570.38929574 -51.69610297 562.53458482 C-51.72377629 548.50360375 -51.71740057 534.47279494 -51.69658796 520.44181123 C-51.67848621 508.16414665 -51.67200077 495.88654284 -51.67695141 483.60886574 C-51.67726459 482.79362499 -51.67757778 481.97838424 -51.67790046 481.13843923 C-51.67918677 477.82891359 -51.68052599 474.51938797 -51.68194532 471.20986238 C-51.69507872 440.18295137 -51.67407037 409.15614687 -51.63712807 378.12925951 C-51.60451717 350.57569727 -51.59998693 323.02226829 -51.61978245 295.46869469 C-51.62482549 288.41140247 -51.62983012 281.35411024 -51.6345253 274.29681778 C-51.63510348 273.4279263 -51.63568166 272.55903482 -51.63627736 271.66381329 C-51.65114719 248.62466838 -51.64285324 225.5855325 -51.62745982 202.5463897 C-51.62583052 200.06692784 -51.62421229 197.58746598 -51.62260981 195.10800411 C-51.6215463 193.46327008 -51.6204666 191.81853606 -51.61937061 190.17380205 C-51.6114434 177.903757 -51.61542153 165.63375307 -51.62503719 153.3637104 C-51.63586926 139.41105993 -51.62856077 125.45854675 -51.59758141 111.50592385 C-51.58074081 103.70093018 -51.57752576 95.89621707 -51.59416229 88.09122135 C-51.60502892 82.26039358 -51.5896947 76.4298244 -51.56421349 70.59903575 C-51.55793873 68.24260124 -51.56006407 65.88612608 -51.57148393 63.52971087 C-51.64522497 46.9566528 -50.03518353 35.84446491 -39.91299534 22.25726891 C-39.19112034 21.26726891 -38.46924534 20.27726891 -37.72549534 19.25726891 C-30.84969682 11.37096964 -22.59147674 6.01107244 -12.91299534 2.25726891 C-11.84271818 1.74013661 -11.84271818 1.74013661 -10.75081927 1.2125572 C-7.1392046 -0.00320999 -3.76497317 -0.02101192 0 0 Z " fill="#190D58" transform="translate(50.91299533843994,-0.25726890563964844)"/>
<path d="M0 0 C0.33 0 0.66 0 1 0 C1.0515625 0.54785156 1.103125 1.09570312 1.15625 1.66015625 C3.20566287 15.98275757 12.1891415 28.72735316 23 38 C29.24578323 42.53746876 35.38082037 45.68129583 43 47 C43 47.66 43 48.32 43 49 C84.25 49.33 125.5 49.66 168 50 C168 52.64 168 55.28 168 58 C152.18738041 58.1171841 136.37487948 58.20515879 120.56193256 58.25906086 C113.21846753 58.28476203 105.87527345 58.31975591 98.53198242 58.37719727 C92.12605426 58.42728209 85.72032247 58.45934969 79.31420392 58.47044247 C75.92708479 58.47691932 72.54052709 58.49196808 69.15358925 58.52865028 C65.35767648 58.56521558 61.56290766 58.56993359 57.7668457 58.56762695 C56.66344345 58.58560333 55.5600412 58.60357971 54.42320251 58.62210083 C42.5380971 58.54450846 32.37176045 54.15694988 23 47 C22.1853125 46.39800781 21.370625 45.79601562 20.53125 45.17578125 C10.10605166 36.21461539 1.237155 21.85613595 0 8 C-0.06600361 5.32685384 -0.04692738 2.6748605 0 0 Z " fill="#754569" transform="translate(515,123)"/>
<path d="M0 0 C0.66 0 1.32 0 2 0 C3.48789901 1.50687224 3.48789901 1.50687224 5.20070934 3.56777287 C8.57265511 7.53030194 12.10413588 11.24507094 15.78865051 14.91563416 C16.43433808 15.56288171 17.08002564 16.21012926 17.74527949 16.87699038 C19.88617865 19.02184396 22.03059309 21.16314616 24.17504883 23.30444336 C25.71982157 24.85057252 27.26438179 26.39691404 28.80874634 27.94345093 C32.98575209 32.12499995 37.16589582 36.30339859 41.34676194 40.48108745 C45.72353427 44.85532285 50.09786045 49.23200336 54.47257996 53.60829163 C61.81187239 60.9494007 69.15326524 68.28840433 76.49584961 75.6262207 C84.05166184 83.17718323 91.60507208 90.73053624 99.15600586 98.28637695 C107.38818554 106.523885 115.62201775 114.75973541 123.8583414 122.99310023 C128.21551092 127.34870849 132.57199655 131.704995 136.92673683 136.06303215 C141.01450946 140.15368374 145.104702 144.24189988 149.19681168 148.32821274 C150.70136728 149.8314414 152.20506389 151.33553035 153.70785713 152.84052086 C155.7516994 154.88707687 157.79856631 156.93055772 159.8462677 158.97325134 C160.44654606 159.57576043 161.04682442 160.17826951 161.66529304 160.79903644 C164.55735178 163.76265716 164.55735178 163.76265716 168 166 C168 166.66 168 167.32 168 168 C165 168 165 168 163.47460938 166.55322266 C162.93642578 165.8885498 162.39824219 165.22387695 161.84375 164.5390625 C157.95731568 159.9035098 153.78696457 155.63895761 149.5 151.375 C148.77941406 150.65054688 148.05882812 149.92609375 147.31640625 149.1796875 C144.10888656 145.97796802 140.90066128 142.86452182 137.40625 139.9765625 C134.95320655 137.92367719 132.86387657 135.77014081 130.79736328 133.33032227 C126.99570274 128.93672196 122.95765658 124.83019601 118.8359375 120.73828125 C118.08083893 119.98459763 117.32574036 119.230914 116.54776001 118.45439148 C114.15920239 116.07137744 111.76717929 113.69187785 109.375 111.3125 C107.76278784 109.70531182 106.15080662 108.09789193 104.5390625 106.49023438 C101.58394455 103.54324276 98.62752644 100.59756989 95.66943359 97.65356445 C92.77556631 94.7730758 89.88595508 91.88841984 87 89 C85.61333047 87.61323203 84.22660528 86.22651972 82.83984375 84.83984375 C51.16015625 53.16015625 51.16015625 53.16015625 48.92951965 50.92938232 C47.45554696 49.45551454 45.98116161 47.98205944 44.5065918 46.50878906 C41.46313972 43.46266911 38.42478819 40.41149045 35.38618469 37.36053467 C31.80684631 33.76787445 28.22491663 30.17780274 24.64282227 26.58789062 C22.74939832 24.68996535 20.85723089 22.79079969 18.96606445 20.890625 C16.23621732 18.14870622 13.50320466 15.40997834 10.76953125 12.671875 C9.92058792 11.81777039 9.07164459 10.96366577 8.19697571 10.0836792 C7.41243515 9.29906311 6.62789459 8.51444702 5.81958008 7.70605469 C5.12850662 7.01276062 4.43743317 6.31946655 3.72541809 5.60516357 C2.07844275 3.92180853 2.07844275 3.92180853 0 3 C0 2.01 0 1.02 0 0 Z " fill="#8E7BEE" transform="translate(515,5)"/>
<path d="M0 0 C0.33 0 0.66 0 1 0 C1.08636719 0.60585937 1.17273438 1.21171875 1.26171875 1.8359375 C2.27044278 7.85126426 4.025047 12.44547647 7.171875 17.67578125 C8 20 8 20 7.140625 22.79296875 C6.76421875 23.52128906 6.3878125 24.24960938 6 25 C0.58468238 19.58468238 -0.03687188 10.8536994 -0.0625 3.5625 C-0.041875 2.386875 -0.02125 1.21125 0 0 Z " fill="#916C95" transform="translate(515,123)"/>
<path d="M0 0 C0.66 0.33 1.32 0.66 2 1 C-2.60136502 6.53601728 -7.46398272 11.39863498 -13 16 C-13 11.08924079 -9.30469813 8.39044878 -6 5 C-4.05397986 3.23549584 -2.07285289 1.6178364 0 0 Z " fill="#CECCDD" transform="translate(30,16)"/>
<path d="M0 0 C1.32 1.65 2.64 3.3 4 5 C3.34 6.32 2.68 7.64 2 9 C0.50178941 5.62902617 0 3.79557881 0 0 Z " fill="#774A7D" transform="translate(517,133)"/>
</svg>
